%TF.GenerationSoftware,KiCad,Pcbnew,(6.0.9)*%
%TF.CreationDate,2023-05-17T22:42:26-04:00*%
%TF.ProjectId,HeadOnN_Condensor_Board,48656164-4f6e-44e5-9f43-6f6e64656e73,rev?*%
%TF.SameCoordinates,Original*%
%TF.FileFunction,Copper,L1,Top*%
%TF.FilePolarity,Positive*%
%FSLAX46Y46*%
G04 Gerber Fmt 4.6, Leading zero omitted, Abs format (unit mm)*
G04 Created by KiCad (PCBNEW (6.0.9)) date 2023-05-17 22:42:26*
%MOMM*%
%LPD*%
G01*
G04 APERTURE LIST*
%TA.AperFunction,ComponentPad*%
%ADD10R,1.700000X1.700000*%
%TD*%
%TA.AperFunction,ComponentPad*%
%ADD11O,1.700000X1.700000*%
%TD*%
%TA.AperFunction,ComponentPad*%
%ADD12R,1.600000X1.600000*%
%TD*%
%TA.AperFunction,ComponentPad*%
%ADD13O,1.600000X1.600000*%
%TD*%
%TA.AperFunction,Conductor*%
%ADD14C,1.000000*%
%TD*%
%TA.AperFunction,Conductor*%
%ADD15C,0.250000*%
%TD*%
G04 APERTURE END LIST*
D10*
%TO.P,J8,1,Pin_1*%
%TO.N,unconnected-(J8-Pad1)*%
X170240000Y-20000000D03*
D11*
%TO.P,J8,2,Pin_2*%
%TO.N,unconnected-(J8-Pad2)*%
X170240000Y-22540000D03*
%TO.P,J8,3,Pin_3*%
%TO.N,unconnected-(J8-Pad3)*%
X170240000Y-25080000D03*
%TO.P,J8,4,Pin_4*%
%TO.N,unconnected-(J8-Pad4)*%
X170240000Y-27620000D03*
%TO.P,J8,5,Pin_5*%
%TO.N,CE_K*%
X170240000Y-30160000D03*
%TO.P,J8,6,Pin_6*%
%TO.N,unconnected-(J8-Pad6)*%
X170240000Y-32700000D03*
%TO.P,J8,7,Pin_7*%
%TO.N,unconnected-(J8-Pad7)*%
X170240000Y-35240000D03*
%TO.P,J8,8,Pin_8*%
%TO.N,unconnected-(J8-Pad8)*%
X170240000Y-37780000D03*
%TO.P,J8,9,Pin_9*%
%TO.N,unconnected-(J8-Pad9)*%
X170240000Y-40320000D03*
%TO.P,J8,10,Pin_10*%
%TO.N,unconnected-(J8-Pad10)*%
X170240000Y-42860000D03*
%TO.P,J8,11,Pin_11*%
%TO.N,unconnected-(J8-Pad11)*%
X170240000Y-45400000D03*
%TO.P,J8,12,Pin_12*%
%TO.N,unconnected-(J8-Pad12)*%
X170240000Y-47940000D03*
%TD*%
D10*
%TO.P,J7,1,Pin_1*%
%TO.N,unconnected-(J7-Pad1)*%
X147740000Y-20000000D03*
D11*
%TO.P,J7,2,Pin_2*%
%TO.N,unconnected-(J7-Pad2)*%
X147740000Y-22540000D03*
%TO.P,J7,3,Pin_3*%
%TO.N,unconnected-(J7-Pad3)*%
X147740000Y-25080000D03*
%TO.P,J7,4,Pin_4*%
%TO.N,unconnected-(J7-Pad4)*%
X147740000Y-27620000D03*
%TO.P,J7,5,Pin_5*%
%TO.N,CE_J*%
X147740000Y-30160000D03*
%TO.P,J7,6,Pin_6*%
%TO.N,unconnected-(J7-Pad6)*%
X147740000Y-32700000D03*
%TO.P,J7,7,Pin_7*%
%TO.N,unconnected-(J7-Pad7)*%
X147740000Y-35240000D03*
%TO.P,J7,8,Pin_8*%
%TO.N,unconnected-(J7-Pad8)*%
X147740000Y-37780000D03*
%TO.P,J7,9,Pin_9*%
%TO.N,unconnected-(J7-Pad9)*%
X147740000Y-40320000D03*
%TO.P,J7,10,Pin_10*%
%TO.N,unconnected-(J7-Pad10)*%
X147740000Y-42860000D03*
%TO.P,J7,11,Pin_11*%
%TO.N,unconnected-(J7-Pad11)*%
X147740000Y-45400000D03*
%TO.P,J7,12,Pin_12*%
%TO.N,unconnected-(J7-Pad12)*%
X147740000Y-47940000D03*
%TD*%
%TO.P,J6,12,Pin_12*%
%TO.N,unconnected-(J6-Pad12)*%
X125240000Y-47940000D03*
%TO.P,J6,11,Pin_11*%
%TO.N,unconnected-(J6-Pad11)*%
X125240000Y-45400000D03*
%TO.P,J6,10,Pin_10*%
%TO.N,unconnected-(J6-Pad10)*%
X125240000Y-42860000D03*
%TO.P,J6,9,Pin_9*%
%TO.N,unconnected-(J6-Pad9)*%
X125240000Y-40320000D03*
%TO.P,J6,8,Pin_8*%
%TO.N,unconnected-(J6-Pad8)*%
X125240000Y-37780000D03*
%TO.P,J6,7,Pin_7*%
%TO.N,unconnected-(J6-Pad7)*%
X125240000Y-35240000D03*
%TO.P,J6,6,Pin_6*%
%TO.N,unconnected-(J6-Pad6)*%
X125240000Y-32700000D03*
%TO.P,J6,5,Pin_5*%
%TO.N,CE_I*%
X125240000Y-30160000D03*
%TO.P,J6,4,Pin_4*%
%TO.N,unconnected-(J6-Pad4)*%
X125240000Y-27620000D03*
%TO.P,J6,3,Pin_3*%
%TO.N,unconnected-(J6-Pad3)*%
X125240000Y-25080000D03*
%TO.P,J6,2,Pin_2*%
%TO.N,unconnected-(J6-Pad2)*%
X125240000Y-22540000D03*
D10*
%TO.P,J6,1,Pin_1*%
%TO.N,unconnected-(J6-Pad1)*%
X125240000Y-20000000D03*
%TD*%
%TO.P,J5,1,Pin_1*%
%TO.N,unconnected-(J5-Pad1)*%
X102740000Y-20000000D03*
D11*
%TO.P,J5,2,Pin_2*%
%TO.N,unconnected-(J5-Pad2)*%
X102740000Y-22540000D03*
%TO.P,J5,3,Pin_3*%
%TO.N,unconnected-(J5-Pad3)*%
X102740000Y-25080000D03*
%TO.P,J5,4,Pin_4*%
%TO.N,unconnected-(J5-Pad4)*%
X102740000Y-27620000D03*
%TO.P,J5,5,Pin_5*%
%TO.N,CE_H*%
X102740000Y-30160000D03*
%TO.P,J5,6,Pin_6*%
%TO.N,unconnected-(J5-Pad6)*%
X102740000Y-32700000D03*
%TO.P,J5,7,Pin_7*%
%TO.N,unconnected-(J5-Pad7)*%
X102740000Y-35240000D03*
%TO.P,J5,8,Pin_8*%
%TO.N,unconnected-(J5-Pad8)*%
X102740000Y-37780000D03*
%TO.P,J5,9,Pin_9*%
%TO.N,unconnected-(J5-Pad9)*%
X102740000Y-40320000D03*
%TO.P,J5,10,Pin_10*%
%TO.N,unconnected-(J5-Pad10)*%
X102740000Y-42860000D03*
%TO.P,J5,11,Pin_11*%
%TO.N,unconnected-(J5-Pad11)*%
X102740000Y-45400000D03*
%TO.P,J5,12,Pin_12*%
%TO.N,unconnected-(J5-Pad12)*%
X102740000Y-47940000D03*
%TD*%
D10*
%TO.P,J4,1,Pin_1*%
%TO.N,unconnected-(J4-Pad1)*%
X80240000Y-20000000D03*
D11*
%TO.P,J4,2,Pin_2*%
%TO.N,unconnected-(J4-Pad2)*%
X80240000Y-22540000D03*
%TO.P,J4,3,Pin_3*%
%TO.N,unconnected-(J4-Pad3)*%
X80240000Y-25080000D03*
%TO.P,J4,4,Pin_4*%
%TO.N,unconnected-(J4-Pad4)*%
X80240000Y-27620000D03*
%TO.P,J4,5,Pin_5*%
%TO.N,CE_G*%
X80240000Y-30160000D03*
%TO.P,J4,6,Pin_6*%
%TO.N,unconnected-(J4-Pad6)*%
X80240000Y-32700000D03*
%TO.P,J4,7,Pin_7*%
%TO.N,unconnected-(J4-Pad7)*%
X80240000Y-35240000D03*
%TO.P,J4,8,Pin_8*%
%TO.N,unconnected-(J4-Pad8)*%
X80240000Y-37780000D03*
%TO.P,J4,9,Pin_9*%
%TO.N,unconnected-(J4-Pad9)*%
X80240000Y-40320000D03*
%TO.P,J4,10,Pin_10*%
%TO.N,unconnected-(J4-Pad10)*%
X80240000Y-42860000D03*
%TO.P,J4,11,Pin_11*%
%TO.N,unconnected-(J4-Pad11)*%
X80240000Y-45400000D03*
%TO.P,J4,12,Pin_12*%
%TO.N,unconnected-(J4-Pad12)*%
X80240000Y-47940000D03*
%TD*%
D10*
%TO.P,J3,1,Pin_1*%
%TO.N,unconnected-(J3-Pad1)*%
X57740000Y-20000000D03*
D11*
%TO.P,J3,2,Pin_2*%
%TO.N,unconnected-(J3-Pad2)*%
X57740000Y-22540000D03*
%TO.P,J3,3,Pin_3*%
%TO.N,unconnected-(J3-Pad3)*%
X57740000Y-25080000D03*
%TO.P,J3,4,Pin_4*%
%TO.N,unconnected-(J3-Pad4)*%
X57740000Y-27620000D03*
%TO.P,J3,5,Pin_5*%
%TO.N,CE_F*%
X57740000Y-30160000D03*
%TO.P,J3,6,Pin_6*%
%TO.N,unconnected-(J3-Pad6)*%
X57740000Y-32700000D03*
%TO.P,J3,7,Pin_7*%
%TO.N,unconnected-(J3-Pad7)*%
X57740000Y-35240000D03*
%TO.P,J3,8,Pin_8*%
%TO.N,unconnected-(J3-Pad8)*%
X57740000Y-37780000D03*
%TO.P,J3,9,Pin_9*%
%TO.N,unconnected-(J3-Pad9)*%
X57740000Y-40320000D03*
%TO.P,J3,10,Pin_10*%
%TO.N,unconnected-(J3-Pad10)*%
X57740000Y-42860000D03*
%TO.P,J3,11,Pin_11*%
%TO.N,unconnected-(J3-Pad11)*%
X57740000Y-45400000D03*
%TO.P,J3,12,Pin_12*%
%TO.N,unconnected-(J3-Pad12)*%
X57740000Y-47940000D03*
%TD*%
D12*
%TO.P,U1,1,I4*%
%TO.N,CE_H*%
X132550000Y-25095000D03*
D13*
%TO.P,U1,2,I5*%
%TO.N,CE_G*%
X132550000Y-27635000D03*
%TO.P,U1,3,I6*%
%TO.N,CE_F*%
X132550000Y-30175000D03*
%TO.P,U1,4,I7*%
%TO.N,CE_E*%
X132550000Y-32715000D03*
%TO.P,U1,5,EI*%
%TO.N,GND*%
X132550000Y-35255000D03*
%TO.P,U1,6,S2*%
%TO.N,A12*%
X132550000Y-37795000D03*
%TO.P,U1,7,S1*%
%TO.N,A11*%
X132550000Y-40335000D03*
%TO.P,U1,8,GND*%
%TO.N,GND*%
X132550000Y-42875000D03*
%TO.P,U1,9,S0*%
%TO.N,A10*%
X140170000Y-42875000D03*
%TO.P,U1,10,IO*%
%TO.N,CE_L*%
X140170000Y-40335000D03*
%TO.P,U1,11,I1*%
%TO.N,CE_K*%
X140170000Y-37795000D03*
%TO.P,U1,12,I2*%
%TO.N,CE_J*%
X140170000Y-35255000D03*
%TO.P,U1,13,I3*%
%TO.N,CE_I*%
X140170000Y-32715000D03*
%TO.P,U1,14,GS*%
%TO.N,OE*%
X140170000Y-30175000D03*
%TO.P,U1,15,EO*%
%TO.N,unconnected-(U1-Pad15)*%
X140170000Y-27635000D03*
%TO.P,U1,16,VCC*%
%TO.N,+5V*%
X140170000Y-25095000D03*
%TD*%
D12*
%TO.P,J9,1,Pin_1*%
%TO.N,A7*%
X177500000Y-20000000D03*
D13*
%TO.P,J9,2,Pin_2*%
%TO.N,A6*%
X177500000Y-22540000D03*
%TO.P,J9,3,Pin_3*%
%TO.N,A5*%
X177500000Y-25080000D03*
%TO.P,J9,4,Pin_4*%
%TO.N,A4*%
X177500000Y-27620000D03*
%TO.P,J9,5,Pin_5*%
%TO.N,A3*%
X177500000Y-30160000D03*
%TO.P,J9,6,Pin_6*%
%TO.N,A2*%
X177500000Y-32700000D03*
%TO.P,J9,7,Pin_7*%
%TO.N,A1*%
X177500000Y-35240000D03*
%TO.P,J9,8,Pin_8*%
%TO.N,A0*%
X177500000Y-37780000D03*
%TO.P,J9,9,Pin_9*%
%TO.N,D0*%
X177500000Y-40320000D03*
%TO.P,J9,10,Pin_10*%
%TO.N,D1*%
X177500000Y-42860000D03*
%TO.P,J9,11,Pin_11*%
%TO.N,D2*%
X177500000Y-45400000D03*
%TO.P,J9,12,Pin_12*%
%TO.N,GND*%
X177500000Y-47940000D03*
%TO.P,J9,13,Pin_13*%
%TO.N,D3*%
X192740000Y-47940000D03*
%TO.P,J9,14,Pin_14*%
%TO.N,D4*%
X192740000Y-45400000D03*
%TO.P,J9,15,Pin_15*%
%TO.N,D5*%
X192740000Y-42860000D03*
%TO.P,J9,16,Pin_16*%
%TO.N,D6*%
X192740000Y-40320000D03*
%TO.P,J9,17,Pin_17*%
%TO.N,D7*%
X192740000Y-37780000D03*
%TO.P,J9,18,Pin_18*%
%TO.N,unconnected-(J9-Pad18)*%
X192740000Y-35240000D03*
%TO.P,J9,19,Pin_19*%
%TO.N,unconnected-(J9-Pad19)*%
X192740000Y-32700000D03*
%TO.P,J9,20,Pin_20*%
%TO.N,CE_L*%
X192740000Y-30160000D03*
%TO.P,J9,21,Pin_21*%
%TO.N,unconnected-(J9-Pad21)*%
X192740000Y-27620000D03*
%TO.P,J9,22,Pin_22*%
%TO.N,A9*%
X192740000Y-25080000D03*
%TO.P,J9,23,Pin_23*%
%TO.N,A8*%
X192740000Y-22540000D03*
%TO.P,J9,24,Pin_24*%
%TO.N,+5V*%
X192740000Y-20000000D03*
%TD*%
D12*
%TO.P,J2,1,Pin_1*%
%TO.N,+5V*%
X151415000Y-17460000D03*
D13*
%TO.P,J2,2,Pin_2*%
%TO.N,A12*%
X151415000Y-20000000D03*
%TO.P,J2,3,Pin_3*%
%TO.N,A7*%
X151415000Y-22540000D03*
%TO.P,J2,4,Pin_4*%
%TO.N,A6*%
X151415000Y-25080000D03*
%TO.P,J2,5,Pin_5*%
%TO.N,A5*%
X151415000Y-27620000D03*
%TO.P,J2,6,Pin_6*%
%TO.N,A4*%
X151415000Y-30160000D03*
%TO.P,J2,7,Pin_7*%
%TO.N,A3*%
X151415000Y-32700000D03*
%TO.P,J2,8,Pin_8*%
%TO.N,A2*%
X151415000Y-35240000D03*
%TO.P,J2,9,Pin_9*%
%TO.N,A1*%
X151415000Y-37780000D03*
%TO.P,J2,10,Pin_10*%
%TO.N,A0*%
X151415000Y-40320000D03*
%TO.P,J2,11,Pin_11*%
%TO.N,D0*%
X151415000Y-42860000D03*
%TO.P,J2,12,Pin_12*%
%TO.N,D1*%
X151415000Y-45400000D03*
%TO.P,J2,13,Pin_13*%
%TO.N,D2*%
X151415000Y-47940000D03*
%TO.P,J2,14,Pin_14*%
%TO.N,GND*%
X151415000Y-50480000D03*
%TO.P,J2,15,Pin_15*%
%TO.N,D3*%
X166655000Y-50480000D03*
%TO.P,J2,16,Pin_16*%
%TO.N,D4*%
X166655000Y-47940000D03*
%TO.P,J2,17,Pin_17*%
%TO.N,D5*%
X166655000Y-45400000D03*
%TO.P,J2,18,Pin_18*%
%TO.N,D6*%
X166655000Y-42860000D03*
%TO.P,J2,19,Pin_19*%
%TO.N,D7*%
X166655000Y-40320000D03*
%TO.P,J2,20,Pin_20*%
%TO.N,OE*%
X166655000Y-37780000D03*
%TO.P,J2,21,Pin_21*%
%TO.N,A10*%
X166655000Y-35240000D03*
%TO.P,J2,22,Pin_22*%
%TO.N,OE*%
X166655000Y-32700000D03*
%TO.P,J2,23,Pin_23*%
%TO.N,A11*%
X166655000Y-30160000D03*
%TO.P,J2,24,Pin_24*%
%TO.N,A9*%
X166655000Y-27620000D03*
%TO.P,J2,25,Pin_25*%
%TO.N,A8*%
X166655000Y-25080000D03*
%TO.P,J2,26,Pin_26*%
%TO.N,unconnected-(J2-Pad26)*%
X166655000Y-22540000D03*
%TO.P,J2,27,Pin_27*%
%TO.N,+5V*%
X166655000Y-20000000D03*
%TO.P,J2,28,Pin_28*%
X166655000Y-17460000D03*
%TD*%
D12*
%TO.P,J1,1,Pin_1*%
%TO.N,unconnected-(J1-Pad1)*%
X20000000Y-20000000D03*
D13*
%TO.P,J1,2,Pin_2*%
%TO.N,unconnected-(J1-Pad2)*%
X20000000Y-22540000D03*
%TO.P,J1,3,Pin_3*%
%TO.N,unconnected-(J1-Pad3)*%
X20000000Y-25080000D03*
%TO.P,J1,4,Pin_4*%
%TO.N,unconnected-(J1-Pad4)*%
X20000000Y-27620000D03*
%TO.P,J1,5,Pin_5*%
%TO.N,unconnected-(J1-Pad5)*%
X20000000Y-30160000D03*
%TO.P,J1,6,Pin_6*%
%TO.N,unconnected-(J1-Pad6)*%
X20000000Y-32700000D03*
%TO.P,J1,7,Pin_7*%
%TO.N,unconnected-(J1-Pad7)*%
X20000000Y-35240000D03*
%TO.P,J1,8,Pin_8*%
%TO.N,unconnected-(J1-Pad8)*%
X20000000Y-37780000D03*
%TO.P,J1,9,Pin_9*%
%TO.N,unconnected-(J1-Pad9)*%
X20000000Y-40320000D03*
%TO.P,J1,10,Pin_10*%
%TO.N,unconnected-(J1-Pad10)*%
X20000000Y-42860000D03*
%TO.P,J1,11,Pin_11*%
%TO.N,unconnected-(J1-Pad11)*%
X20000000Y-45400000D03*
%TO.P,J1,12,Pin_12*%
%TO.N,unconnected-(J1-Pad12)*%
X20000000Y-47940000D03*
%TO.P,J1,13,Pin_13*%
%TO.N,unconnected-(J1-Pad13)*%
X35240000Y-47940000D03*
%TO.P,J1,14,Pin_14*%
%TO.N,unconnected-(J1-Pad14)*%
X35240000Y-45400000D03*
%TO.P,J1,15,Pin_15*%
%TO.N,unconnected-(J1-Pad15)*%
X35240000Y-42860000D03*
%TO.P,J1,16,Pin_16*%
%TO.N,unconnected-(J1-Pad16)*%
X35240000Y-40320000D03*
%TO.P,J1,17,Pin_17*%
%TO.N,unconnected-(J1-Pad17)*%
X35240000Y-37780000D03*
%TO.P,J1,18,Pin_18*%
%TO.N,unconnected-(J1-Pad18)*%
X35240000Y-35240000D03*
%TO.P,J1,19,Pin_19*%
%TO.N,unconnected-(J1-Pad19)*%
X35240000Y-32700000D03*
%TO.P,J1,20,Pin_20*%
%TO.N,CE_E*%
X35240000Y-30160000D03*
%TO.P,J1,21,Pin_21*%
%TO.N,unconnected-(J1-Pad21)*%
X35240000Y-27620000D03*
%TO.P,J1,22,Pin_22*%
%TO.N,unconnected-(J1-Pad22)*%
X35240000Y-25080000D03*
%TO.P,J1,23,Pin_23*%
%TO.N,unconnected-(J1-Pad23)*%
X35240000Y-22540000D03*
%TO.P,J1,24,Pin_24*%
%TO.N,unconnected-(J1-Pad24)*%
X35240000Y-20000000D03*
%TD*%
D14*
%TO.N,+5V*%
X166655000Y-18445000D02*
X167640000Y-17460000D01*
X166655000Y-20000000D02*
X166655000Y-18445000D01*
X167640000Y-17460000D02*
X166655000Y-17460000D01*
X183210000Y-17460000D02*
X167640000Y-17460000D01*
X165610000Y-17460000D02*
X151415000Y-17460000D01*
X166655000Y-18505000D02*
X165610000Y-17460000D01*
X166655000Y-17460000D02*
X165610000Y-17460000D01*
X166655000Y-20000000D02*
X166655000Y-18505000D01*
X166655000Y-20000000D02*
X166655000Y-17460000D01*
%TO.N,GND*%
X141875000Y-52200000D02*
X141655000Y-51980000D01*
X174610000Y-47940000D02*
X170350000Y-52200000D01*
X177500000Y-47940000D02*
X174610000Y-47940000D01*
X170350000Y-52200000D02*
X141875000Y-52200000D01*
D15*
%TO.N,OE*%
X141875000Y-30175000D02*
X140170000Y-30175000D01*
X145650000Y-33950000D02*
X141875000Y-30175000D01*
X160200000Y-32700000D02*
X158950000Y-33950000D01*
X158950000Y-33950000D02*
X145650000Y-33950000D01*
X166655000Y-32700000D02*
X160200000Y-32700000D01*
D14*
%TO.N,GND*%
X130350000Y-42150000D02*
X130350000Y-35900000D01*
X130350000Y-35900000D02*
X130995000Y-35255000D01*
X131075000Y-42875000D02*
X130350000Y-42150000D01*
X132550000Y-42875000D02*
X131075000Y-42875000D01*
X130995000Y-35255000D02*
X132550000Y-35255000D01*
X151415000Y-50480000D02*
X152915000Y-51980000D01*
X151415000Y-50480000D02*
X149915000Y-51980000D01*
X141655000Y-51980000D02*
X132550000Y-42875000D01*
%TO.N,+5V*%
X140170000Y-20780000D02*
X140170000Y-25095000D01*
X143490000Y-17460000D02*
X140170000Y-20780000D01*
X151415000Y-17460000D02*
X143490000Y-17460000D01*
X185750000Y-20000000D02*
X183210000Y-17460000D01*
X192740000Y-20000000D02*
X185750000Y-20000000D01*
D15*
%TO.N,CE_I*%
X129500000Y-31450000D02*
X128210000Y-30160000D01*
X128210000Y-30160000D02*
X125240000Y-30160000D01*
X135600000Y-31450000D02*
X129500000Y-31450000D01*
X136865000Y-32715000D02*
X135600000Y-31450000D01*
X140170000Y-32715000D02*
X136865000Y-32715000D01*
%TO.N,A10*%
X158800000Y-36550000D02*
X160110000Y-35240000D01*
X143200000Y-39100000D02*
X145750000Y-36550000D01*
X141875000Y-42875000D02*
X143200000Y-41550000D01*
X145750000Y-36550000D02*
X158800000Y-36550000D01*
X140170000Y-42875000D02*
X141875000Y-42875000D01*
X143200000Y-41550000D02*
X143200000Y-39100000D01*
X160110000Y-35240000D02*
X166655000Y-35240000D01*
%TO.N,D2*%
X158810000Y-47940000D02*
X151415000Y-47940000D01*
X175100000Y-45400000D02*
X173800000Y-46700000D01*
X173800000Y-46700000D02*
X160050000Y-46700000D01*
X160050000Y-46700000D02*
X158810000Y-47940000D01*
X177500000Y-45400000D02*
X175100000Y-45400000D01*
%TO.N,D1*%
X158800000Y-45400000D02*
X151415000Y-45400000D01*
X160050000Y-44150000D02*
X158800000Y-45400000D01*
X173750000Y-44150000D02*
X160050000Y-44150000D01*
X175040000Y-42860000D02*
X173750000Y-44150000D01*
X177500000Y-42860000D02*
X175040000Y-42860000D01*
%TO.N,D0*%
X160050000Y-41600000D02*
X158790000Y-42860000D01*
X158790000Y-42860000D02*
X151415000Y-42860000D01*
X173700000Y-41600000D02*
X160050000Y-41600000D01*
X174980000Y-40320000D02*
X173700000Y-41600000D01*
X177500000Y-40320000D02*
X174980000Y-40320000D01*
%TO.N,A0*%
X158680000Y-40320000D02*
X151415000Y-40320000D01*
X159950000Y-39050000D02*
X158680000Y-40320000D01*
X173850000Y-39050000D02*
X159950000Y-39050000D01*
X177500000Y-37780000D02*
X175120000Y-37780000D01*
X175120000Y-37780000D02*
X173850000Y-39050000D01*
%TO.N,A1*%
X160100000Y-36500000D02*
X158820000Y-37780000D01*
X158820000Y-37780000D02*
X151415000Y-37780000D01*
X173900000Y-36500000D02*
X160100000Y-36500000D01*
X175160000Y-35240000D02*
X173900000Y-36500000D01*
X177500000Y-35240000D02*
X175160000Y-35240000D01*
%TO.N,A2*%
X160100000Y-33950000D02*
X158810000Y-35240000D01*
X175250000Y-32700000D02*
X174000000Y-33950000D01*
X177500000Y-32700000D02*
X175250000Y-32700000D01*
X174000000Y-33950000D02*
X160100000Y-33950000D01*
X158810000Y-35240000D02*
X151415000Y-35240000D01*
%TO.N,A3*%
X159000000Y-32700000D02*
X151415000Y-32700000D01*
X160250000Y-31450000D02*
X159000000Y-32700000D01*
X174100000Y-31450000D02*
X160250000Y-31450000D01*
X175390000Y-30160000D02*
X174100000Y-31450000D01*
X177500000Y-30160000D02*
X175390000Y-30160000D01*
%TO.N,A4*%
X174150000Y-28900000D02*
X160350000Y-28900000D01*
X175430000Y-27620000D02*
X174150000Y-28900000D01*
X160350000Y-28900000D02*
X159090000Y-30160000D01*
X177500000Y-27620000D02*
X175430000Y-27620000D01*
X159090000Y-30160000D02*
X151415000Y-30160000D01*
%TO.N,A5*%
X159130000Y-27620000D02*
X151415000Y-27620000D01*
X160400000Y-26350000D02*
X159130000Y-27620000D01*
X175520000Y-25080000D02*
X174250000Y-26350000D01*
X174250000Y-26350000D02*
X160400000Y-26350000D01*
X177500000Y-25080000D02*
X175520000Y-25080000D01*
%TO.N,A6*%
X160400000Y-23800000D02*
X159120000Y-25080000D01*
X159120000Y-25080000D02*
X151415000Y-25080000D01*
X175560000Y-22540000D02*
X174300000Y-23800000D01*
X177500000Y-22540000D02*
X175560000Y-22540000D01*
X174300000Y-23800000D02*
X160400000Y-23800000D01*
%TO.N,A7*%
X151415000Y-22540000D02*
X159210000Y-22540000D01*
X160450000Y-21300000D02*
X159775000Y-21975000D01*
X159210000Y-22540000D02*
X159775000Y-21975000D01*
X174400000Y-21300000D02*
X160450000Y-21300000D01*
X175700000Y-20000000D02*
X174400000Y-21300000D01*
X177500000Y-20000000D02*
X175700000Y-20000000D01*
%TD*%
M02*
