%TF.GenerationSoftware,KiCad,Pcbnew,(6.0.9)*%
%TF.CreationDate,2023-05-17T22:42:26-04:00*%
%TF.ProjectId,HeadOnN_Condensor_Board,48656164-4f6e-44e5-9f43-6f6e64656e73,rev?*%
%TF.SameCoordinates,Original*%
%TF.FileFunction,Soldermask,Top*%
%TF.FilePolarity,Negative*%
%FSLAX46Y46*%
G04 Gerber Fmt 4.6, Leading zero omitted, Abs format (unit mm)*
G04 Created by KiCad (PCBNEW (6.0.9)) date 2023-05-17 22:42:26*
%MOMM*%
%LPD*%
G01*
G04 APERTURE LIST*
%ADD10R,1.700000X1.700000*%
%ADD11O,1.700000X1.700000*%
%ADD12R,1.600000X1.600000*%
%ADD13O,1.600000X1.600000*%
G04 APERTURE END LIST*
D10*
%TO.C,J8*%
X170240000Y-20000000D03*
D11*
X170240000Y-22540000D03*
X170240000Y-25080000D03*
X170240000Y-27620000D03*
X170240000Y-30160000D03*
X170240000Y-32700000D03*
X170240000Y-35240000D03*
X170240000Y-37780000D03*
X170240000Y-40320000D03*
X170240000Y-42860000D03*
X170240000Y-45400000D03*
X170240000Y-47940000D03*
%TD*%
D10*
%TO.C,J7*%
X147740000Y-20000000D03*
D11*
X147740000Y-22540000D03*
X147740000Y-25080000D03*
X147740000Y-27620000D03*
X147740000Y-30160000D03*
X147740000Y-32700000D03*
X147740000Y-35240000D03*
X147740000Y-37780000D03*
X147740000Y-40320000D03*
X147740000Y-42860000D03*
X147740000Y-45400000D03*
X147740000Y-47940000D03*
%TD*%
%TO.C,J6*%
X125240000Y-47940000D03*
X125240000Y-45400000D03*
X125240000Y-42860000D03*
X125240000Y-40320000D03*
X125240000Y-37780000D03*
X125240000Y-35240000D03*
X125240000Y-32700000D03*
X125240000Y-30160000D03*
X125240000Y-27620000D03*
X125240000Y-25080000D03*
X125240000Y-22540000D03*
D10*
X125240000Y-20000000D03*
%TD*%
%TO.C,J5*%
X102740000Y-20000000D03*
D11*
X102740000Y-22540000D03*
X102740000Y-25080000D03*
X102740000Y-27620000D03*
X102740000Y-30160000D03*
X102740000Y-32700000D03*
X102740000Y-35240000D03*
X102740000Y-37780000D03*
X102740000Y-40320000D03*
X102740000Y-42860000D03*
X102740000Y-45400000D03*
X102740000Y-47940000D03*
%TD*%
D10*
%TO.C,J4*%
X80240000Y-20000000D03*
D11*
X80240000Y-22540000D03*
X80240000Y-25080000D03*
X80240000Y-27620000D03*
X80240000Y-30160000D03*
X80240000Y-32700000D03*
X80240000Y-35240000D03*
X80240000Y-37780000D03*
X80240000Y-40320000D03*
X80240000Y-42860000D03*
X80240000Y-45400000D03*
X80240000Y-47940000D03*
%TD*%
D10*
%TO.C,J3*%
X57740000Y-20000000D03*
D11*
X57740000Y-22540000D03*
X57740000Y-25080000D03*
X57740000Y-27620000D03*
X57740000Y-30160000D03*
X57740000Y-32700000D03*
X57740000Y-35240000D03*
X57740000Y-37780000D03*
X57740000Y-40320000D03*
X57740000Y-42860000D03*
X57740000Y-45400000D03*
X57740000Y-47940000D03*
%TD*%
D12*
%TO.C,U1*%
X132550000Y-25095000D03*
D13*
X132550000Y-27635000D03*
X132550000Y-30175000D03*
X132550000Y-32715000D03*
X132550000Y-35255000D03*
X132550000Y-37795000D03*
X132550000Y-40335000D03*
X132550000Y-42875000D03*
X140170000Y-42875000D03*
X140170000Y-40335000D03*
X140170000Y-37795000D03*
X140170000Y-35255000D03*
X140170000Y-32715000D03*
X140170000Y-30175000D03*
X140170000Y-27635000D03*
X140170000Y-25095000D03*
%TD*%
D12*
%TO.C,J9*%
X177500000Y-20000000D03*
D13*
X177500000Y-22540000D03*
X177500000Y-25080000D03*
X177500000Y-27620000D03*
X177500000Y-30160000D03*
X177500000Y-32700000D03*
X177500000Y-35240000D03*
X177500000Y-37780000D03*
X177500000Y-40320000D03*
X177500000Y-42860000D03*
X177500000Y-45400000D03*
X177500000Y-47940000D03*
X192740000Y-47940000D03*
X192740000Y-45400000D03*
X192740000Y-42860000D03*
X192740000Y-40320000D03*
X192740000Y-37780000D03*
X192740000Y-35240000D03*
X192740000Y-32700000D03*
X192740000Y-30160000D03*
X192740000Y-27620000D03*
X192740000Y-25080000D03*
X192740000Y-22540000D03*
X192740000Y-20000000D03*
%TD*%
D12*
%TO.C,J2*%
X151415000Y-17460000D03*
D13*
X151415000Y-20000000D03*
X151415000Y-22540000D03*
X151415000Y-25080000D03*
X151415000Y-27620000D03*
X151415000Y-30160000D03*
X151415000Y-32700000D03*
X151415000Y-35240000D03*
X151415000Y-37780000D03*
X151415000Y-40320000D03*
X151415000Y-42860000D03*
X151415000Y-45400000D03*
X151415000Y-47940000D03*
X151415000Y-50480000D03*
X166655000Y-50480000D03*
X166655000Y-47940000D03*
X166655000Y-45400000D03*
X166655000Y-42860000D03*
X166655000Y-40320000D03*
X166655000Y-37780000D03*
X166655000Y-35240000D03*
X166655000Y-32700000D03*
X166655000Y-30160000D03*
X166655000Y-27620000D03*
X166655000Y-25080000D03*
X166655000Y-22540000D03*
X166655000Y-20000000D03*
X166655000Y-17460000D03*
%TD*%
D12*
%TO.C,J1*%
X20000000Y-20000000D03*
D13*
X20000000Y-22540000D03*
X20000000Y-25080000D03*
X20000000Y-27620000D03*
X20000000Y-30160000D03*
X20000000Y-32700000D03*
X20000000Y-35240000D03*
X20000000Y-37780000D03*
X20000000Y-40320000D03*
X20000000Y-42860000D03*
X20000000Y-45400000D03*
X20000000Y-47940000D03*
X35240000Y-47940000D03*
X35240000Y-45400000D03*
X35240000Y-42860000D03*
X35240000Y-40320000D03*
X35240000Y-37780000D03*
X35240000Y-35240000D03*
X35240000Y-32700000D03*
X35240000Y-30160000D03*
X35240000Y-27620000D03*
X35240000Y-25080000D03*
X35240000Y-22540000D03*
X35240000Y-20000000D03*
%TD*%
M02*
