%TF.GenerationSoftware,KiCad,Pcbnew,(6.0.9)*%
%TF.CreationDate,2023-05-17T22:42:26-04:00*%
%TF.ProjectId,HeadOnN_Condensor_Board,48656164-4f6e-44e5-9f43-6f6e64656e73,rev?*%
%TF.SameCoordinates,Original*%
%TF.FileFunction,Legend,Top*%
%TF.FilePolarity,Positive*%
%FSLAX46Y46*%
G04 Gerber Fmt 4.6, Leading zero omitted, Abs format (unit mm)*
G04 Created by KiCad (PCBNEW (6.0.9)) date 2023-05-17 22:42:26*
%MOMM*%
%LPD*%
G01*
G04 APERTURE LIST*
%ADD10C,0.150000*%
%ADD11C,0.300000*%
%ADD12C,0.120000*%
G04 APERTURE END LIST*
D10*
X136997619Y-29330952D02*
X136283333Y-29330952D01*
X136140476Y-29283333D01*
X136045238Y-29188095D01*
X135997619Y-29045238D01*
X135997619Y-28950000D01*
X135997619Y-30283333D02*
X135997619Y-29807142D01*
X136997619Y-29807142D01*
X136092857Y-31188095D02*
X136045238Y-31140476D01*
X135997619Y-30997619D01*
X135997619Y-30902380D01*
X136045238Y-30759523D01*
X136140476Y-30664285D01*
X136235714Y-30616666D01*
X136426190Y-30569047D01*
X136569047Y-30569047D01*
X136759523Y-30616666D01*
X136854761Y-30664285D01*
X136950000Y-30759523D01*
X136997619Y-30902380D01*
X136997619Y-30997619D01*
X136950000Y-31140476D01*
X136902380Y-31188095D01*
X136997619Y-31902380D02*
X136283333Y-31902380D01*
X136140476Y-31854761D01*
X136045238Y-31759523D01*
X135997619Y-31616666D01*
X135997619Y-31521428D01*
X135997619Y-32854761D02*
X135997619Y-32378571D01*
X136997619Y-32378571D01*
X136092857Y-33759523D02*
X136045238Y-33711904D01*
X135997619Y-33569047D01*
X135997619Y-33473809D01*
X136045238Y-33330952D01*
X136140476Y-33235714D01*
X136235714Y-33188095D01*
X136426190Y-33140476D01*
X136569047Y-33140476D01*
X136759523Y-33188095D01*
X136854761Y-33235714D01*
X136950000Y-33330952D01*
X136997619Y-33473809D01*
X136997619Y-33569047D01*
X136950000Y-33711904D01*
X136902380Y-33759523D01*
X136997619Y-34473809D02*
X136283333Y-34473809D01*
X136140476Y-34426190D01*
X136045238Y-34330952D01*
X135997619Y-34188095D01*
X135997619Y-34092857D01*
X135997619Y-35426190D02*
X135997619Y-34950000D01*
X136997619Y-34950000D01*
X136092857Y-36330952D02*
X136045238Y-36283333D01*
X135997619Y-36140476D01*
X135997619Y-36045238D01*
X136045238Y-35902380D01*
X136140476Y-35807142D01*
X136235714Y-35759523D01*
X136426190Y-35711904D01*
X136569047Y-35711904D01*
X136759523Y-35759523D01*
X136854761Y-35807142D01*
X136950000Y-35902380D01*
X136997619Y-36045238D01*
X136997619Y-36140476D01*
X136950000Y-36283333D01*
X136902380Y-36330952D01*
X136997619Y-37045238D02*
X136283333Y-37045238D01*
X136140476Y-36997619D01*
X136045238Y-36902380D01*
X135997619Y-36759523D01*
X135997619Y-36664285D01*
X135997619Y-37997619D02*
X135997619Y-37521428D01*
X136997619Y-37521428D01*
X136092857Y-38902380D02*
X136045238Y-38854761D01*
X135997619Y-38711904D01*
X135997619Y-38616666D01*
X136045238Y-38473809D01*
X136140476Y-38378571D01*
X136235714Y-38330952D01*
X136426190Y-38283333D01*
X136569047Y-38283333D01*
X136759523Y-38330952D01*
X136854761Y-38378571D01*
X136950000Y-38473809D01*
X136997619Y-38616666D01*
X136997619Y-38711904D01*
X136950000Y-38854761D01*
X136902380Y-38902380D01*
D11*
X19149999Y-52504761D02*
X19149999Y-50504761D01*
X19149999Y-51457142D02*
X20292857Y-51457142D01*
X20292857Y-52504761D02*
X20292857Y-50504761D01*
X22007142Y-52409523D02*
X21816666Y-52504761D01*
X21435714Y-52504761D01*
X21245238Y-52409523D01*
X21149999Y-52219047D01*
X21149999Y-51457142D01*
X21245238Y-51266666D01*
X21435714Y-51171428D01*
X21816666Y-51171428D01*
X22007142Y-51266666D01*
X22102380Y-51457142D01*
X22102380Y-51647619D01*
X21149999Y-51838095D01*
X23816666Y-52504761D02*
X23816666Y-51457142D01*
X23721428Y-51266666D01*
X23530952Y-51171428D01*
X23149999Y-51171428D01*
X22959523Y-51266666D01*
X23816666Y-52409523D02*
X23626190Y-52504761D01*
X23149999Y-52504761D01*
X22959523Y-52409523D01*
X22864285Y-52219047D01*
X22864285Y-52028571D01*
X22959523Y-51838095D01*
X23149999Y-51742857D01*
X23626190Y-51742857D01*
X23816666Y-51647619D01*
X25626190Y-52504761D02*
X25626190Y-50504761D01*
X25626190Y-52409523D02*
X25435714Y-52504761D01*
X25054761Y-52504761D01*
X24864285Y-52409523D01*
X24769047Y-52314285D01*
X24673809Y-52123809D01*
X24673809Y-51552380D01*
X24769047Y-51361904D01*
X24864285Y-51266666D01*
X25054761Y-51171428D01*
X25435714Y-51171428D01*
X25626190Y-51266666D01*
X28483333Y-50504761D02*
X28864285Y-50504761D01*
X29054761Y-50600000D01*
X29245238Y-50790476D01*
X29340476Y-51171428D01*
X29340476Y-51838095D01*
X29245238Y-52219047D01*
X29054761Y-52409523D01*
X28864285Y-52504761D01*
X28483333Y-52504761D01*
X28292857Y-52409523D01*
X28102380Y-52219047D01*
X28007142Y-51838095D01*
X28007142Y-51171428D01*
X28102380Y-50790476D01*
X28292857Y-50600000D01*
X28483333Y-50504761D01*
X30197619Y-51171428D02*
X30197619Y-52504761D01*
X30197619Y-51361904D02*
X30292857Y-51266666D01*
X30483333Y-51171428D01*
X30769047Y-51171428D01*
X30959523Y-51266666D01*
X31054761Y-51457142D01*
X31054761Y-52504761D01*
X33530952Y-52504761D02*
X33530952Y-50504761D01*
X34673809Y-52504761D01*
X34673809Y-50504761D01*
X38292857Y-52504761D02*
X37626190Y-51552380D01*
X37150000Y-52504761D02*
X37150000Y-50504761D01*
X37911904Y-50504761D01*
X38102380Y-50600000D01*
X38197619Y-50695238D01*
X38292857Y-50885714D01*
X38292857Y-51171428D01*
X38197619Y-51361904D01*
X38102380Y-51457142D01*
X37911904Y-51552380D01*
X37150000Y-51552380D01*
X39530952Y-50504761D02*
X39911904Y-50504761D01*
X40102380Y-50600000D01*
X40292857Y-50790476D01*
X40388095Y-51171428D01*
X40388095Y-51838095D01*
X40292857Y-52219047D01*
X40102380Y-52409523D01*
X39911904Y-52504761D01*
X39530952Y-52504761D01*
X39340476Y-52409523D01*
X39150000Y-52219047D01*
X39054761Y-51838095D01*
X39054761Y-51171428D01*
X39150000Y-50790476D01*
X39340476Y-50600000D01*
X39530952Y-50504761D01*
X41245238Y-52504761D02*
X41245238Y-50504761D01*
X41911904Y-51933333D01*
X42578571Y-50504761D01*
X42578571Y-52504761D01*
X46197619Y-52314285D02*
X46102380Y-52409523D01*
X45816666Y-52504761D01*
X45626190Y-52504761D01*
X45340476Y-52409523D01*
X45149999Y-52219047D01*
X45054761Y-52028571D01*
X44959523Y-51647619D01*
X44959523Y-51361904D01*
X45054761Y-50980952D01*
X45149999Y-50790476D01*
X45340476Y-50600000D01*
X45626190Y-50504761D01*
X45816666Y-50504761D01*
X46102380Y-50600000D01*
X46197619Y-50695238D01*
X47340476Y-52504761D02*
X47149999Y-52409523D01*
X47054761Y-52314285D01*
X46959523Y-52123809D01*
X46959523Y-51552380D01*
X47054761Y-51361904D01*
X47149999Y-51266666D01*
X47340476Y-51171428D01*
X47626190Y-51171428D01*
X47816666Y-51266666D01*
X47911904Y-51361904D01*
X48007142Y-51552380D01*
X48007142Y-52123809D01*
X47911904Y-52314285D01*
X47816666Y-52409523D01*
X47626190Y-52504761D01*
X47340476Y-52504761D01*
X48864285Y-51171428D02*
X48864285Y-52504761D01*
X48864285Y-51361904D02*
X48959523Y-51266666D01*
X49149999Y-51171428D01*
X49435714Y-51171428D01*
X49626190Y-51266666D01*
X49721428Y-51457142D01*
X49721428Y-52504761D01*
X51530952Y-52504761D02*
X51530952Y-50504761D01*
X51530952Y-52409523D02*
X51340476Y-52504761D01*
X50959523Y-52504761D01*
X50769047Y-52409523D01*
X50673809Y-52314285D01*
X50578571Y-52123809D01*
X50578571Y-51552380D01*
X50673809Y-51361904D01*
X50769047Y-51266666D01*
X50959523Y-51171428D01*
X51340476Y-51171428D01*
X51530952Y-51266666D01*
X53245238Y-52409523D02*
X53054761Y-52504761D01*
X52673809Y-52504761D01*
X52483333Y-52409523D01*
X52388095Y-52219047D01*
X52388095Y-51457142D01*
X52483333Y-51266666D01*
X52673809Y-51171428D01*
X53054761Y-51171428D01*
X53245238Y-51266666D01*
X53340476Y-51457142D01*
X53340476Y-51647619D01*
X52388095Y-51838095D01*
X54197619Y-51171428D02*
X54197619Y-52504761D01*
X54197619Y-51361904D02*
X54292857Y-51266666D01*
X54483333Y-51171428D01*
X54769047Y-51171428D01*
X54959523Y-51266666D01*
X55054761Y-51457142D01*
X55054761Y-52504761D01*
X55911904Y-52409523D02*
X56102380Y-52504761D01*
X56483333Y-52504761D01*
X56673809Y-52409523D01*
X56769047Y-52219047D01*
X56769047Y-52123809D01*
X56673809Y-51933333D01*
X56483333Y-51838095D01*
X56197619Y-51838095D01*
X56007142Y-51742857D01*
X55911904Y-51552380D01*
X55911904Y-51457142D01*
X56007142Y-51266666D01*
X56197619Y-51171428D01*
X56483333Y-51171428D01*
X56673809Y-51266666D01*
X58388095Y-52409523D02*
X58197619Y-52504761D01*
X57816666Y-52504761D01*
X57626190Y-52409523D01*
X57530952Y-52219047D01*
X57530952Y-51457142D01*
X57626190Y-51266666D01*
X57816666Y-51171428D01*
X58197619Y-51171428D01*
X58388095Y-51266666D01*
X58483333Y-51457142D01*
X58483333Y-51647619D01*
X57530952Y-51838095D01*
X59340476Y-52504761D02*
X59340476Y-51171428D01*
X59340476Y-51552380D02*
X59435714Y-51361904D01*
X59530952Y-51266666D01*
X59721428Y-51171428D01*
X59911904Y-51171428D01*
X62102380Y-52504761D02*
X62102380Y-50504761D01*
X62864285Y-50504761D01*
X63054761Y-50600000D01*
X63149999Y-50695238D01*
X63245238Y-50885714D01*
X63245238Y-51171428D01*
X63149999Y-51361904D01*
X63054761Y-51457142D01*
X62864285Y-51552380D01*
X62102380Y-51552380D01*
X65245238Y-52314285D02*
X65149999Y-52409523D01*
X64864285Y-52504761D01*
X64673809Y-52504761D01*
X64388095Y-52409523D01*
X64197619Y-52219047D01*
X64102380Y-52028571D01*
X64007142Y-51647619D01*
X64007142Y-51361904D01*
X64102380Y-50980952D01*
X64197619Y-50790476D01*
X64388095Y-50600000D01*
X64673809Y-50504761D01*
X64864285Y-50504761D01*
X65149999Y-50600000D01*
X65245238Y-50695238D01*
X66769047Y-51457142D02*
X67054761Y-51552380D01*
X67149999Y-51647619D01*
X67245238Y-51838095D01*
X67245238Y-52123809D01*
X67149999Y-52314285D01*
X67054761Y-52409523D01*
X66864285Y-52504761D01*
X66102380Y-52504761D01*
X66102380Y-50504761D01*
X66769047Y-50504761D01*
X66959523Y-50600000D01*
X67054761Y-50695238D01*
X67149999Y-50885714D01*
X67149999Y-51076190D01*
X67054761Y-51266666D01*
X66959523Y-51361904D01*
X66769047Y-51457142D01*
X66102380Y-51457142D01*
D10*
X105150000Y-27450000D02*
X122450000Y-27450000D01*
X109326755Y-26852380D02*
X109451755Y-25852380D01*
X109695803Y-26566666D01*
X110118422Y-25852380D01*
X109993422Y-26852380D01*
X110856517Y-26804761D02*
X110755327Y-26852380D01*
X110564851Y-26852380D01*
X110475565Y-26804761D01*
X110439851Y-26709523D01*
X110487470Y-26328571D01*
X110546994Y-26233333D01*
X110648184Y-26185714D01*
X110838660Y-26185714D01*
X110927946Y-26233333D01*
X110963660Y-26328571D01*
X110951755Y-26423809D01*
X110463660Y-26519047D01*
X111326755Y-26852380D02*
X111410089Y-26185714D01*
X111398184Y-26280952D02*
X111451755Y-26233333D01*
X111552946Y-26185714D01*
X111695803Y-26185714D01*
X111785089Y-26233333D01*
X111820803Y-26328571D01*
X111755327Y-26852380D01*
X111820803Y-26328571D02*
X111880327Y-26233333D01*
X111981517Y-26185714D01*
X112124375Y-26185714D01*
X112213660Y-26233333D01*
X112249375Y-26328571D01*
X112183898Y-26852380D01*
X112802946Y-26852380D02*
X112713660Y-26804761D01*
X112671994Y-26757142D01*
X112636279Y-26661904D01*
X112671994Y-26376190D01*
X112731517Y-26280952D01*
X112785089Y-26233333D01*
X112886279Y-26185714D01*
X113029136Y-26185714D01*
X113118422Y-26233333D01*
X113160089Y-26280952D01*
X113195803Y-26376190D01*
X113160089Y-26661904D01*
X113100565Y-26757142D01*
X113046994Y-26804761D01*
X112945803Y-26852380D01*
X112802946Y-26852380D01*
X113564851Y-26852380D02*
X113648184Y-26185714D01*
X113624375Y-26376190D02*
X113683898Y-26280952D01*
X113737470Y-26233333D01*
X113838660Y-26185714D01*
X113933898Y-26185714D01*
X114171994Y-26185714D02*
X114326755Y-26852380D01*
X114648184Y-26185714D02*
X114326755Y-26852380D01*
X114201755Y-27090476D01*
X114148184Y-27138095D01*
X114046994Y-27185714D01*
X115707708Y-26852380D02*
X115832708Y-25852380D01*
X116076755Y-26566666D01*
X116499375Y-25852380D01*
X116374375Y-26852380D01*
X117279136Y-26852380D02*
X117344613Y-26328571D01*
X117308898Y-26233333D01*
X117219613Y-26185714D01*
X117029136Y-26185714D01*
X116927946Y-26233333D01*
X117285089Y-26804761D02*
X117183898Y-26852380D01*
X116945803Y-26852380D01*
X116856517Y-26804761D01*
X116820803Y-26709523D01*
X116832708Y-26614285D01*
X116892232Y-26519047D01*
X116993422Y-26471428D01*
X117231517Y-26471428D01*
X117332708Y-26423809D01*
X117838660Y-26185714D02*
X117713660Y-27185714D01*
X117832708Y-26233333D02*
X117933898Y-26185714D01*
X118124375Y-26185714D01*
X118213660Y-26233333D01*
X118255327Y-26280952D01*
X118291041Y-26376190D01*
X118255327Y-26661904D01*
X118195803Y-26757142D01*
X118142232Y-26804761D01*
X118041041Y-26852380D01*
X117850565Y-26852380D01*
X117761279Y-26804761D01*
X106009642Y-28100714D02*
X106009642Y-28767380D01*
X105771547Y-27719761D02*
X105533452Y-28434047D01*
X106152500Y-28434047D01*
X106533452Y-28243571D02*
X106866785Y-28243571D01*
X107009642Y-28767380D02*
X106533452Y-28767380D01*
X106533452Y-27767380D01*
X107009642Y-27767380D01*
X107438214Y-28672142D02*
X107485833Y-28719761D01*
X107438214Y-28767380D01*
X107390595Y-28719761D01*
X107438214Y-28672142D01*
X107438214Y-28767380D01*
X107438214Y-28148333D02*
X107485833Y-28195952D01*
X107438214Y-28243571D01*
X107390595Y-28195952D01*
X107438214Y-28148333D01*
X107438214Y-28243571D01*
X108866785Y-27767380D02*
X108962023Y-27767380D01*
X109057261Y-27815000D01*
X109104880Y-27862619D01*
X109152500Y-27957857D01*
X109200119Y-28148333D01*
X109200119Y-28386428D01*
X109152500Y-28576904D01*
X109104880Y-28672142D01*
X109057261Y-28719761D01*
X108962023Y-28767380D01*
X108866785Y-28767380D01*
X108771547Y-28719761D01*
X108723928Y-28672142D01*
X108676309Y-28576904D01*
X108628690Y-28386428D01*
X108628690Y-28148333D01*
X108676309Y-27957857D01*
X108723928Y-27862619D01*
X108771547Y-27815000D01*
X108866785Y-27767380D01*
X109533452Y-28767380D02*
X110057261Y-28100714D01*
X109533452Y-28100714D02*
X110057261Y-28767380D01*
X110628690Y-27767380D02*
X110723928Y-27767380D01*
X110819166Y-27815000D01*
X110866785Y-27862619D01*
X110914404Y-27957857D01*
X110962023Y-28148333D01*
X110962023Y-28386428D01*
X110914404Y-28576904D01*
X110866785Y-28672142D01*
X110819166Y-28719761D01*
X110723928Y-28767380D01*
X110628690Y-28767380D01*
X110533452Y-28719761D01*
X110485833Y-28672142D01*
X110438214Y-28576904D01*
X110390595Y-28386428D01*
X110390595Y-28148333D01*
X110438214Y-27957857D01*
X110485833Y-27862619D01*
X110533452Y-27815000D01*
X110628690Y-27767380D01*
X111581071Y-27767380D02*
X111676309Y-27767380D01*
X111771547Y-27815000D01*
X111819166Y-27862619D01*
X111866785Y-27957857D01*
X111914404Y-28148333D01*
X111914404Y-28386428D01*
X111866785Y-28576904D01*
X111819166Y-28672142D01*
X111771547Y-28719761D01*
X111676309Y-28767380D01*
X111581071Y-28767380D01*
X111485833Y-28719761D01*
X111438214Y-28672142D01*
X111390595Y-28576904D01*
X111342976Y-28386428D01*
X111342976Y-28148333D01*
X111390595Y-27957857D01*
X111438214Y-27862619D01*
X111485833Y-27815000D01*
X111581071Y-27767380D01*
X112533452Y-27767380D02*
X112628690Y-27767380D01*
X112723928Y-27815000D01*
X112771547Y-27862619D01*
X112819166Y-27957857D01*
X112866785Y-28148333D01*
X112866785Y-28386428D01*
X112819166Y-28576904D01*
X112771547Y-28672142D01*
X112723928Y-28719761D01*
X112628690Y-28767380D01*
X112533452Y-28767380D01*
X112438214Y-28719761D01*
X112390595Y-28672142D01*
X112342976Y-28576904D01*
X112295357Y-28386428D01*
X112295357Y-28148333D01*
X112342976Y-27957857D01*
X112390595Y-27862619D01*
X112438214Y-27815000D01*
X112533452Y-27767380D01*
X113485833Y-27767380D02*
X113581071Y-27767380D01*
X113676309Y-27815000D01*
X113723928Y-27862619D01*
X113771547Y-27957857D01*
X113819166Y-28148333D01*
X113819166Y-28386428D01*
X113771547Y-28576904D01*
X113723928Y-28672142D01*
X113676309Y-28719761D01*
X113581071Y-28767380D01*
X113485833Y-28767380D01*
X113390595Y-28719761D01*
X113342976Y-28672142D01*
X113295357Y-28576904D01*
X113247738Y-28386428D01*
X113247738Y-28148333D01*
X113295357Y-27957857D01*
X113342976Y-27862619D01*
X113390595Y-27815000D01*
X113485833Y-27767380D01*
X115009642Y-28386428D02*
X115771547Y-28386428D01*
X117200119Y-27767380D02*
X117295357Y-27767380D01*
X117390595Y-27815000D01*
X117438214Y-27862619D01*
X117485833Y-27957857D01*
X117533452Y-28148333D01*
X117533452Y-28386428D01*
X117485833Y-28576904D01*
X117438214Y-28672142D01*
X117390595Y-28719761D01*
X117295357Y-28767380D01*
X117200119Y-28767380D01*
X117104880Y-28719761D01*
X117057261Y-28672142D01*
X117009642Y-28576904D01*
X116962023Y-28386428D01*
X116962023Y-28148333D01*
X117009642Y-27957857D01*
X117057261Y-27862619D01*
X117104880Y-27815000D01*
X117200119Y-27767380D01*
X117866785Y-28767380D02*
X118390595Y-28100714D01*
X117866785Y-28100714D02*
X118390595Y-28767380D01*
X118962023Y-27767380D02*
X119057261Y-27767380D01*
X119152500Y-27815000D01*
X119200119Y-27862619D01*
X119247738Y-27957857D01*
X119295357Y-28148333D01*
X119295357Y-28386428D01*
X119247738Y-28576904D01*
X119200119Y-28672142D01*
X119152500Y-28719761D01*
X119057261Y-28767380D01*
X118962023Y-28767380D01*
X118866785Y-28719761D01*
X118819166Y-28672142D01*
X118771547Y-28576904D01*
X118723928Y-28386428D01*
X118723928Y-28148333D01*
X118771547Y-27957857D01*
X118819166Y-27862619D01*
X118866785Y-27815000D01*
X118962023Y-27767380D01*
X119628690Y-27767380D02*
X120247738Y-27767380D01*
X119914404Y-28148333D01*
X120057261Y-28148333D01*
X120152500Y-28195952D01*
X120200119Y-28243571D01*
X120247738Y-28338809D01*
X120247738Y-28576904D01*
X120200119Y-28672142D01*
X120152500Y-28719761D01*
X120057261Y-28767380D01*
X119771547Y-28767380D01*
X119676309Y-28719761D01*
X119628690Y-28672142D01*
X121009642Y-28243571D02*
X120676309Y-28243571D01*
X120676309Y-28767380D02*
X120676309Y-27767380D01*
X121152500Y-27767380D01*
X121866785Y-28243571D02*
X121533452Y-28243571D01*
X121533452Y-28767380D02*
X121533452Y-27767380D01*
X122009642Y-27767380D01*
X106057261Y-29710714D02*
X106057261Y-30377380D01*
X105819166Y-29329761D02*
X105581071Y-30044047D01*
X106200119Y-30044047D01*
X106914404Y-29853571D02*
X106581071Y-29853571D01*
X106581071Y-30377380D02*
X106581071Y-29377380D01*
X107057261Y-29377380D01*
X107438214Y-30282142D02*
X107485833Y-30329761D01*
X107438214Y-30377380D01*
X107390595Y-30329761D01*
X107438214Y-30282142D01*
X107438214Y-30377380D01*
X107438214Y-29758333D02*
X107485833Y-29805952D01*
X107438214Y-29853571D01*
X107390595Y-29805952D01*
X107438214Y-29758333D01*
X107438214Y-29853571D01*
X108866785Y-29377380D02*
X108962023Y-29377380D01*
X109057261Y-29425000D01*
X109104880Y-29472619D01*
X109152500Y-29567857D01*
X109200119Y-29758333D01*
X109200119Y-29996428D01*
X109152500Y-30186904D01*
X109104880Y-30282142D01*
X109057261Y-30329761D01*
X108962023Y-30377380D01*
X108866785Y-30377380D01*
X108771547Y-30329761D01*
X108723928Y-30282142D01*
X108676309Y-30186904D01*
X108628690Y-29996428D01*
X108628690Y-29758333D01*
X108676309Y-29567857D01*
X108723928Y-29472619D01*
X108771547Y-29425000D01*
X108866785Y-29377380D01*
X109533452Y-30377380D02*
X110057261Y-29710714D01*
X109533452Y-29710714D02*
X110057261Y-30377380D01*
X110628690Y-29377380D02*
X110723928Y-29377380D01*
X110819166Y-29425000D01*
X110866785Y-29472619D01*
X110914404Y-29567857D01*
X110962023Y-29758333D01*
X110962023Y-29996428D01*
X110914404Y-30186904D01*
X110866785Y-30282142D01*
X110819166Y-30329761D01*
X110723928Y-30377380D01*
X110628690Y-30377380D01*
X110533452Y-30329761D01*
X110485833Y-30282142D01*
X110438214Y-30186904D01*
X110390595Y-29996428D01*
X110390595Y-29758333D01*
X110438214Y-29567857D01*
X110485833Y-29472619D01*
X110533452Y-29425000D01*
X110628690Y-29377380D01*
X111819166Y-29710714D02*
X111819166Y-30377380D01*
X111581071Y-29329761D02*
X111342976Y-30044047D01*
X111962023Y-30044047D01*
X112533452Y-29377380D02*
X112628690Y-29377380D01*
X112723928Y-29425000D01*
X112771547Y-29472619D01*
X112819166Y-29567857D01*
X112866785Y-29758333D01*
X112866785Y-29996428D01*
X112819166Y-30186904D01*
X112771547Y-30282142D01*
X112723928Y-30329761D01*
X112628690Y-30377380D01*
X112533452Y-30377380D01*
X112438214Y-30329761D01*
X112390595Y-30282142D01*
X112342976Y-30186904D01*
X112295357Y-29996428D01*
X112295357Y-29758333D01*
X112342976Y-29567857D01*
X112390595Y-29472619D01*
X112438214Y-29425000D01*
X112533452Y-29377380D01*
X113485833Y-29377380D02*
X113581071Y-29377380D01*
X113676309Y-29425000D01*
X113723928Y-29472619D01*
X113771547Y-29567857D01*
X113819166Y-29758333D01*
X113819166Y-29996428D01*
X113771547Y-30186904D01*
X113723928Y-30282142D01*
X113676309Y-30329761D01*
X113581071Y-30377380D01*
X113485833Y-30377380D01*
X113390595Y-30329761D01*
X113342976Y-30282142D01*
X113295357Y-30186904D01*
X113247738Y-29996428D01*
X113247738Y-29758333D01*
X113295357Y-29567857D01*
X113342976Y-29472619D01*
X113390595Y-29425000D01*
X113485833Y-29377380D01*
X115009642Y-29996428D02*
X115771547Y-29996428D01*
X117200119Y-29377380D02*
X117295357Y-29377380D01*
X117390595Y-29425000D01*
X117438214Y-29472619D01*
X117485833Y-29567857D01*
X117533452Y-29758333D01*
X117533452Y-29996428D01*
X117485833Y-30186904D01*
X117438214Y-30282142D01*
X117390595Y-30329761D01*
X117295357Y-30377380D01*
X117200119Y-30377380D01*
X117104880Y-30329761D01*
X117057261Y-30282142D01*
X117009642Y-30186904D01*
X116962023Y-29996428D01*
X116962023Y-29758333D01*
X117009642Y-29567857D01*
X117057261Y-29472619D01*
X117104880Y-29425000D01*
X117200119Y-29377380D01*
X117866785Y-30377380D02*
X118390595Y-29710714D01*
X117866785Y-29710714D02*
X118390595Y-30377380D01*
X118962023Y-29377380D02*
X119057261Y-29377380D01*
X119152500Y-29425000D01*
X119200119Y-29472619D01*
X119247738Y-29567857D01*
X119295357Y-29758333D01*
X119295357Y-29996428D01*
X119247738Y-30186904D01*
X119200119Y-30282142D01*
X119152500Y-30329761D01*
X119057261Y-30377380D01*
X118962023Y-30377380D01*
X118866785Y-30329761D01*
X118819166Y-30282142D01*
X118771547Y-30186904D01*
X118723928Y-29996428D01*
X118723928Y-29758333D01*
X118771547Y-29567857D01*
X118819166Y-29472619D01*
X118866785Y-29425000D01*
X118962023Y-29377380D01*
X119628690Y-29377380D02*
X120295357Y-29377380D01*
X119866785Y-30377380D01*
X121009642Y-29853571D02*
X120676309Y-29853571D01*
X120676309Y-30377380D02*
X120676309Y-29377380D01*
X121152500Y-29377380D01*
X121866785Y-29853571D02*
X121533452Y-29853571D01*
X121533452Y-30377380D02*
X121533452Y-29377380D01*
X122009642Y-29377380D01*
X105866785Y-31320714D02*
X105866785Y-31987380D01*
X105628690Y-30939761D02*
X105390595Y-31654047D01*
X106009642Y-31654047D01*
X106914404Y-31035000D02*
X106819166Y-30987380D01*
X106676309Y-30987380D01*
X106533452Y-31035000D01*
X106438214Y-31130238D01*
X106390595Y-31225476D01*
X106342976Y-31415952D01*
X106342976Y-31558809D01*
X106390595Y-31749285D01*
X106438214Y-31844523D01*
X106533452Y-31939761D01*
X106676309Y-31987380D01*
X106771547Y-31987380D01*
X106914404Y-31939761D01*
X106962023Y-31892142D01*
X106962023Y-31558809D01*
X106771547Y-31558809D01*
X107390595Y-31892142D02*
X107438214Y-31939761D01*
X107390595Y-31987380D01*
X107342976Y-31939761D01*
X107390595Y-31892142D01*
X107390595Y-31987380D01*
X107390595Y-31368333D02*
X107438214Y-31415952D01*
X107390595Y-31463571D01*
X107342976Y-31415952D01*
X107390595Y-31368333D01*
X107390595Y-31463571D01*
X108819166Y-30987380D02*
X108914404Y-30987380D01*
X109009642Y-31035000D01*
X109057261Y-31082619D01*
X109104880Y-31177857D01*
X109152500Y-31368333D01*
X109152500Y-31606428D01*
X109104880Y-31796904D01*
X109057261Y-31892142D01*
X109009642Y-31939761D01*
X108914404Y-31987380D01*
X108819166Y-31987380D01*
X108723928Y-31939761D01*
X108676309Y-31892142D01*
X108628690Y-31796904D01*
X108581071Y-31606428D01*
X108581071Y-31368333D01*
X108628690Y-31177857D01*
X108676309Y-31082619D01*
X108723928Y-31035000D01*
X108819166Y-30987380D01*
X109485833Y-31987380D02*
X110009642Y-31320714D01*
X109485833Y-31320714D02*
X110009642Y-31987380D01*
X110581071Y-30987380D02*
X110676309Y-30987380D01*
X110771547Y-31035000D01*
X110819166Y-31082619D01*
X110866785Y-31177857D01*
X110914404Y-31368333D01*
X110914404Y-31606428D01*
X110866785Y-31796904D01*
X110819166Y-31892142D01*
X110771547Y-31939761D01*
X110676309Y-31987380D01*
X110581071Y-31987380D01*
X110485833Y-31939761D01*
X110438214Y-31892142D01*
X110390595Y-31796904D01*
X110342976Y-31606428D01*
X110342976Y-31368333D01*
X110390595Y-31177857D01*
X110438214Y-31082619D01*
X110485833Y-31035000D01*
X110581071Y-30987380D01*
X111485833Y-31415952D02*
X111390595Y-31368333D01*
X111342976Y-31320714D01*
X111295357Y-31225476D01*
X111295357Y-31177857D01*
X111342976Y-31082619D01*
X111390595Y-31035000D01*
X111485833Y-30987380D01*
X111676309Y-30987380D01*
X111771547Y-31035000D01*
X111819166Y-31082619D01*
X111866785Y-31177857D01*
X111866785Y-31225476D01*
X111819166Y-31320714D01*
X111771547Y-31368333D01*
X111676309Y-31415952D01*
X111485833Y-31415952D01*
X111390595Y-31463571D01*
X111342976Y-31511190D01*
X111295357Y-31606428D01*
X111295357Y-31796904D01*
X111342976Y-31892142D01*
X111390595Y-31939761D01*
X111485833Y-31987380D01*
X111676309Y-31987380D01*
X111771547Y-31939761D01*
X111819166Y-31892142D01*
X111866785Y-31796904D01*
X111866785Y-31606428D01*
X111819166Y-31511190D01*
X111771547Y-31463571D01*
X111676309Y-31415952D01*
X112485833Y-30987380D02*
X112581071Y-30987380D01*
X112676309Y-31035000D01*
X112723928Y-31082619D01*
X112771547Y-31177857D01*
X112819166Y-31368333D01*
X112819166Y-31606428D01*
X112771547Y-31796904D01*
X112723928Y-31892142D01*
X112676309Y-31939761D01*
X112581071Y-31987380D01*
X112485833Y-31987380D01*
X112390595Y-31939761D01*
X112342976Y-31892142D01*
X112295357Y-31796904D01*
X112247738Y-31606428D01*
X112247738Y-31368333D01*
X112295357Y-31177857D01*
X112342976Y-31082619D01*
X112390595Y-31035000D01*
X112485833Y-30987380D01*
X113438214Y-30987380D02*
X113533452Y-30987380D01*
X113628690Y-31035000D01*
X113676309Y-31082619D01*
X113723928Y-31177857D01*
X113771547Y-31368333D01*
X113771547Y-31606428D01*
X113723928Y-31796904D01*
X113676309Y-31892142D01*
X113628690Y-31939761D01*
X113533452Y-31987380D01*
X113438214Y-31987380D01*
X113342976Y-31939761D01*
X113295357Y-31892142D01*
X113247738Y-31796904D01*
X113200119Y-31606428D01*
X113200119Y-31368333D01*
X113247738Y-31177857D01*
X113295357Y-31082619D01*
X113342976Y-31035000D01*
X113438214Y-30987380D01*
X114962023Y-31606428D02*
X115723928Y-31606428D01*
X117152500Y-30987380D02*
X117247738Y-30987380D01*
X117342976Y-31035000D01*
X117390595Y-31082619D01*
X117438214Y-31177857D01*
X117485833Y-31368333D01*
X117485833Y-31606428D01*
X117438214Y-31796904D01*
X117390595Y-31892142D01*
X117342976Y-31939761D01*
X117247738Y-31987380D01*
X117152500Y-31987380D01*
X117057261Y-31939761D01*
X117009642Y-31892142D01*
X116962023Y-31796904D01*
X116914404Y-31606428D01*
X116914404Y-31368333D01*
X116962023Y-31177857D01*
X117009642Y-31082619D01*
X117057261Y-31035000D01*
X117152500Y-30987380D01*
X117819166Y-31987380D02*
X118342976Y-31320714D01*
X117819166Y-31320714D02*
X118342976Y-31987380D01*
X118914404Y-30987380D02*
X119009642Y-30987380D01*
X119104880Y-31035000D01*
X119152500Y-31082619D01*
X119200119Y-31177857D01*
X119247738Y-31368333D01*
X119247738Y-31606428D01*
X119200119Y-31796904D01*
X119152500Y-31892142D01*
X119104880Y-31939761D01*
X119009642Y-31987380D01*
X118914404Y-31987380D01*
X118819166Y-31939761D01*
X118771547Y-31892142D01*
X118723928Y-31796904D01*
X118676309Y-31606428D01*
X118676309Y-31368333D01*
X118723928Y-31177857D01*
X118771547Y-31082619D01*
X118819166Y-31035000D01*
X118914404Y-30987380D01*
X120009642Y-31463571D02*
X120152500Y-31511190D01*
X120200119Y-31558809D01*
X120247738Y-31654047D01*
X120247738Y-31796904D01*
X120200119Y-31892142D01*
X120152500Y-31939761D01*
X120057261Y-31987380D01*
X119676309Y-31987380D01*
X119676309Y-30987380D01*
X120009642Y-30987380D01*
X120104880Y-31035000D01*
X120152500Y-31082619D01*
X120200119Y-31177857D01*
X120200119Y-31273095D01*
X120152500Y-31368333D01*
X120104880Y-31415952D01*
X120009642Y-31463571D01*
X119676309Y-31463571D01*
X121009642Y-31463571D02*
X120676309Y-31463571D01*
X120676309Y-31987380D02*
X120676309Y-30987380D01*
X121152500Y-30987380D01*
X121866785Y-31463571D02*
X121533452Y-31463571D01*
X121533452Y-31987380D02*
X121533452Y-30987380D01*
X122009642Y-30987380D01*
X105914404Y-32930714D02*
X105914404Y-33597380D01*
X105676309Y-32549761D02*
X105438214Y-33264047D01*
X106057261Y-33264047D01*
X106438214Y-33597380D02*
X106438214Y-32597380D01*
X106438214Y-33073571D02*
X107009642Y-33073571D01*
X107009642Y-33597380D02*
X107009642Y-32597380D01*
X107485833Y-33502142D02*
X107533452Y-33549761D01*
X107485833Y-33597380D01*
X107438214Y-33549761D01*
X107485833Y-33502142D01*
X107485833Y-33597380D01*
X107485833Y-32978333D02*
X107533452Y-33025952D01*
X107485833Y-33073571D01*
X107438214Y-33025952D01*
X107485833Y-32978333D01*
X107485833Y-33073571D01*
X108914404Y-32597380D02*
X109009642Y-32597380D01*
X109104880Y-32645000D01*
X109152500Y-32692619D01*
X109200119Y-32787857D01*
X109247738Y-32978333D01*
X109247738Y-33216428D01*
X109200119Y-33406904D01*
X109152500Y-33502142D01*
X109104880Y-33549761D01*
X109009642Y-33597380D01*
X108914404Y-33597380D01*
X108819166Y-33549761D01*
X108771547Y-33502142D01*
X108723928Y-33406904D01*
X108676309Y-33216428D01*
X108676309Y-32978333D01*
X108723928Y-32787857D01*
X108771547Y-32692619D01*
X108819166Y-32645000D01*
X108914404Y-32597380D01*
X109581071Y-33597380D02*
X110104880Y-32930714D01*
X109581071Y-32930714D02*
X110104880Y-33597380D01*
X110676309Y-32597380D02*
X110771547Y-32597380D01*
X110866785Y-32645000D01*
X110914404Y-32692619D01*
X110962023Y-32787857D01*
X111009642Y-32978333D01*
X111009642Y-33216428D01*
X110962023Y-33406904D01*
X110914404Y-33502142D01*
X110866785Y-33549761D01*
X110771547Y-33597380D01*
X110676309Y-33597380D01*
X110581071Y-33549761D01*
X110533452Y-33502142D01*
X110485833Y-33406904D01*
X110438214Y-33216428D01*
X110438214Y-32978333D01*
X110485833Y-32787857D01*
X110533452Y-32692619D01*
X110581071Y-32645000D01*
X110676309Y-32597380D01*
X112009642Y-33502142D02*
X111962023Y-33549761D01*
X111819166Y-33597380D01*
X111723928Y-33597380D01*
X111581071Y-33549761D01*
X111485833Y-33454523D01*
X111438214Y-33359285D01*
X111390595Y-33168809D01*
X111390595Y-33025952D01*
X111438214Y-32835476D01*
X111485833Y-32740238D01*
X111581071Y-32645000D01*
X111723928Y-32597380D01*
X111819166Y-32597380D01*
X111962023Y-32645000D01*
X112009642Y-32692619D01*
X112628690Y-32597380D02*
X112723928Y-32597380D01*
X112819166Y-32645000D01*
X112866785Y-32692619D01*
X112914404Y-32787857D01*
X112962023Y-32978333D01*
X112962023Y-33216428D01*
X112914404Y-33406904D01*
X112866785Y-33502142D01*
X112819166Y-33549761D01*
X112723928Y-33597380D01*
X112628690Y-33597380D01*
X112533452Y-33549761D01*
X112485833Y-33502142D01*
X112438214Y-33406904D01*
X112390595Y-33216428D01*
X112390595Y-32978333D01*
X112438214Y-32787857D01*
X112485833Y-32692619D01*
X112533452Y-32645000D01*
X112628690Y-32597380D01*
X113581071Y-32597380D02*
X113676309Y-32597380D01*
X113771547Y-32645000D01*
X113819166Y-32692619D01*
X113866785Y-32787857D01*
X113914404Y-32978333D01*
X113914404Y-33216428D01*
X113866785Y-33406904D01*
X113819166Y-33502142D01*
X113771547Y-33549761D01*
X113676309Y-33597380D01*
X113581071Y-33597380D01*
X113485833Y-33549761D01*
X113438214Y-33502142D01*
X113390595Y-33406904D01*
X113342976Y-33216428D01*
X113342976Y-32978333D01*
X113390595Y-32787857D01*
X113438214Y-32692619D01*
X113485833Y-32645000D01*
X113581071Y-32597380D01*
X115104880Y-33216428D02*
X115866785Y-33216428D01*
X117295357Y-32597380D02*
X117390595Y-32597380D01*
X117485833Y-32645000D01*
X117533452Y-32692619D01*
X117581071Y-32787857D01*
X117628690Y-32978333D01*
X117628690Y-33216428D01*
X117581071Y-33406904D01*
X117533452Y-33502142D01*
X117485833Y-33549761D01*
X117390595Y-33597380D01*
X117295357Y-33597380D01*
X117200119Y-33549761D01*
X117152500Y-33502142D01*
X117104880Y-33406904D01*
X117057261Y-33216428D01*
X117057261Y-32978333D01*
X117104880Y-32787857D01*
X117152500Y-32692619D01*
X117200119Y-32645000D01*
X117295357Y-32597380D01*
X117962023Y-33597380D02*
X118485833Y-32930714D01*
X117962023Y-32930714D02*
X118485833Y-33597380D01*
X119057261Y-32597380D02*
X119152500Y-32597380D01*
X119247738Y-32645000D01*
X119295357Y-32692619D01*
X119342976Y-32787857D01*
X119390595Y-32978333D01*
X119390595Y-33216428D01*
X119342976Y-33406904D01*
X119295357Y-33502142D01*
X119247738Y-33549761D01*
X119152500Y-33597380D01*
X119057261Y-33597380D01*
X118962023Y-33549761D01*
X118914404Y-33502142D01*
X118866785Y-33406904D01*
X118819166Y-33216428D01*
X118819166Y-32978333D01*
X118866785Y-32787857D01*
X118914404Y-32692619D01*
X118962023Y-32645000D01*
X119057261Y-32597380D01*
X120152499Y-33073571D02*
X119819166Y-33073571D01*
X119819166Y-33597380D02*
X119819166Y-32597380D01*
X120295357Y-32597380D01*
X121009642Y-33073571D02*
X120676309Y-33073571D01*
X120676309Y-33597380D02*
X120676309Y-32597380D01*
X121152499Y-32597380D01*
X121866785Y-33073571D02*
X121533452Y-33073571D01*
X121533452Y-33597380D02*
X121533452Y-32597380D01*
X122009642Y-32597380D01*
X106438214Y-34540714D02*
X106438214Y-35207380D01*
X106200119Y-34159761D02*
X105962023Y-34874047D01*
X106581071Y-34874047D01*
X106962023Y-35207380D02*
X106962023Y-34207380D01*
X107438214Y-35112142D02*
X107485833Y-35159761D01*
X107438214Y-35207380D01*
X107390595Y-35159761D01*
X107438214Y-35112142D01*
X107438214Y-35207380D01*
X107438214Y-34588333D02*
X107485833Y-34635952D01*
X107438214Y-34683571D01*
X107390595Y-34635952D01*
X107438214Y-34588333D01*
X107438214Y-34683571D01*
X108866785Y-34207380D02*
X108962023Y-34207380D01*
X109057261Y-34255000D01*
X109104880Y-34302619D01*
X109152500Y-34397857D01*
X109200119Y-34588333D01*
X109200119Y-34826428D01*
X109152500Y-35016904D01*
X109104880Y-35112142D01*
X109057261Y-35159761D01*
X108962023Y-35207380D01*
X108866785Y-35207380D01*
X108771547Y-35159761D01*
X108723928Y-35112142D01*
X108676309Y-35016904D01*
X108628690Y-34826428D01*
X108628690Y-34588333D01*
X108676309Y-34397857D01*
X108723928Y-34302619D01*
X108771547Y-34255000D01*
X108866785Y-34207380D01*
X109533452Y-35207380D02*
X110057261Y-34540714D01*
X109533452Y-34540714D02*
X110057261Y-35207380D01*
X110962023Y-35207380D02*
X110390595Y-35207380D01*
X110676309Y-35207380D02*
X110676309Y-34207380D01*
X110581071Y-34350238D01*
X110485833Y-34445476D01*
X110390595Y-34493095D01*
X111581071Y-34207380D02*
X111676309Y-34207380D01*
X111771547Y-34255000D01*
X111819166Y-34302619D01*
X111866785Y-34397857D01*
X111914404Y-34588333D01*
X111914404Y-34826428D01*
X111866785Y-35016904D01*
X111819166Y-35112142D01*
X111771547Y-35159761D01*
X111676309Y-35207380D01*
X111581071Y-35207380D01*
X111485833Y-35159761D01*
X111438214Y-35112142D01*
X111390595Y-35016904D01*
X111342976Y-34826428D01*
X111342976Y-34588333D01*
X111390595Y-34397857D01*
X111438214Y-34302619D01*
X111485833Y-34255000D01*
X111581071Y-34207380D01*
X112533452Y-34207380D02*
X112628690Y-34207380D01*
X112723928Y-34255000D01*
X112771547Y-34302619D01*
X112819166Y-34397857D01*
X112866785Y-34588333D01*
X112866785Y-34826428D01*
X112819166Y-35016904D01*
X112771547Y-35112142D01*
X112723928Y-35159761D01*
X112628690Y-35207380D01*
X112533452Y-35207380D01*
X112438214Y-35159761D01*
X112390595Y-35112142D01*
X112342976Y-35016904D01*
X112295357Y-34826428D01*
X112295357Y-34588333D01*
X112342976Y-34397857D01*
X112390595Y-34302619D01*
X112438214Y-34255000D01*
X112533452Y-34207380D01*
X113485833Y-34207380D02*
X113581071Y-34207380D01*
X113676309Y-34255000D01*
X113723928Y-34302619D01*
X113771547Y-34397857D01*
X113819166Y-34588333D01*
X113819166Y-34826428D01*
X113771547Y-35016904D01*
X113723928Y-35112142D01*
X113676309Y-35159761D01*
X113581071Y-35207380D01*
X113485833Y-35207380D01*
X113390595Y-35159761D01*
X113342976Y-35112142D01*
X113295357Y-35016904D01*
X113247738Y-34826428D01*
X113247738Y-34588333D01*
X113295357Y-34397857D01*
X113342976Y-34302619D01*
X113390595Y-34255000D01*
X113485833Y-34207380D01*
X115009642Y-34826428D02*
X115771547Y-34826428D01*
X117200119Y-34207380D02*
X117295357Y-34207380D01*
X117390595Y-34255000D01*
X117438214Y-34302619D01*
X117485833Y-34397857D01*
X117533452Y-34588333D01*
X117533452Y-34826428D01*
X117485833Y-35016904D01*
X117438214Y-35112142D01*
X117390595Y-35159761D01*
X117295357Y-35207380D01*
X117200119Y-35207380D01*
X117104880Y-35159761D01*
X117057261Y-35112142D01*
X117009642Y-35016904D01*
X116962023Y-34826428D01*
X116962023Y-34588333D01*
X117009642Y-34397857D01*
X117057261Y-34302619D01*
X117104880Y-34255000D01*
X117200119Y-34207380D01*
X117866785Y-35207380D02*
X118390595Y-34540714D01*
X117866785Y-34540714D02*
X118390595Y-35207380D01*
X119295357Y-35207380D02*
X118723928Y-35207380D01*
X119009642Y-35207380D02*
X119009642Y-34207380D01*
X118914404Y-34350238D01*
X118819166Y-34445476D01*
X118723928Y-34493095D01*
X119628690Y-34207380D02*
X120247738Y-34207380D01*
X119914404Y-34588333D01*
X120057261Y-34588333D01*
X120152499Y-34635952D01*
X120200119Y-34683571D01*
X120247738Y-34778809D01*
X120247738Y-35016904D01*
X120200119Y-35112142D01*
X120152499Y-35159761D01*
X120057261Y-35207380D01*
X119771547Y-35207380D01*
X119676309Y-35159761D01*
X119628690Y-35112142D01*
X121009642Y-34683571D02*
X120676309Y-34683571D01*
X120676309Y-35207380D02*
X120676309Y-34207380D01*
X121152499Y-34207380D01*
X121866785Y-34683571D02*
X121533452Y-34683571D01*
X121533452Y-35207380D02*
X121533452Y-34207380D01*
X122009642Y-34207380D01*
X106152500Y-36150714D02*
X106152500Y-36817380D01*
X105914404Y-35769761D02*
X105676309Y-36484047D01*
X106295357Y-36484047D01*
X106962023Y-35817380D02*
X106962023Y-36531666D01*
X106914404Y-36674523D01*
X106819166Y-36769761D01*
X106676309Y-36817380D01*
X106581071Y-36817380D01*
X107438214Y-36722142D02*
X107485833Y-36769761D01*
X107438214Y-36817380D01*
X107390595Y-36769761D01*
X107438214Y-36722142D01*
X107438214Y-36817380D01*
X107438214Y-36198333D02*
X107485833Y-36245952D01*
X107438214Y-36293571D01*
X107390595Y-36245952D01*
X107438214Y-36198333D01*
X107438214Y-36293571D01*
X108866785Y-35817380D02*
X108962023Y-35817380D01*
X109057261Y-35865000D01*
X109104880Y-35912619D01*
X109152500Y-36007857D01*
X109200119Y-36198333D01*
X109200119Y-36436428D01*
X109152500Y-36626904D01*
X109104880Y-36722142D01*
X109057261Y-36769761D01*
X108962023Y-36817380D01*
X108866785Y-36817380D01*
X108771547Y-36769761D01*
X108723928Y-36722142D01*
X108676309Y-36626904D01*
X108628690Y-36436428D01*
X108628690Y-36198333D01*
X108676309Y-36007857D01*
X108723928Y-35912619D01*
X108771547Y-35865000D01*
X108866785Y-35817380D01*
X109533452Y-36817380D02*
X110057261Y-36150714D01*
X109533452Y-36150714D02*
X110057261Y-36817380D01*
X110962023Y-36817380D02*
X110390595Y-36817380D01*
X110676309Y-36817380D02*
X110676309Y-35817380D01*
X110581071Y-35960238D01*
X110485833Y-36055476D01*
X110390595Y-36103095D01*
X111819166Y-36150714D02*
X111819166Y-36817380D01*
X111581071Y-35769761D02*
X111342976Y-36484047D01*
X111962023Y-36484047D01*
X112533452Y-35817380D02*
X112628690Y-35817380D01*
X112723928Y-35865000D01*
X112771547Y-35912619D01*
X112819166Y-36007857D01*
X112866785Y-36198333D01*
X112866785Y-36436428D01*
X112819166Y-36626904D01*
X112771547Y-36722142D01*
X112723928Y-36769761D01*
X112628690Y-36817380D01*
X112533452Y-36817380D01*
X112438214Y-36769761D01*
X112390595Y-36722142D01*
X112342976Y-36626904D01*
X112295357Y-36436428D01*
X112295357Y-36198333D01*
X112342976Y-36007857D01*
X112390595Y-35912619D01*
X112438214Y-35865000D01*
X112533452Y-35817380D01*
X113485833Y-35817380D02*
X113581071Y-35817380D01*
X113676309Y-35865000D01*
X113723928Y-35912619D01*
X113771547Y-36007857D01*
X113819166Y-36198333D01*
X113819166Y-36436428D01*
X113771547Y-36626904D01*
X113723928Y-36722142D01*
X113676309Y-36769761D01*
X113581071Y-36817380D01*
X113485833Y-36817380D01*
X113390595Y-36769761D01*
X113342976Y-36722142D01*
X113295357Y-36626904D01*
X113247738Y-36436428D01*
X113247738Y-36198333D01*
X113295357Y-36007857D01*
X113342976Y-35912619D01*
X113390595Y-35865000D01*
X113485833Y-35817380D01*
X115009642Y-36436428D02*
X115771547Y-36436428D01*
X117200119Y-35817380D02*
X117295357Y-35817380D01*
X117390595Y-35865000D01*
X117438214Y-35912619D01*
X117485833Y-36007857D01*
X117533452Y-36198333D01*
X117533452Y-36436428D01*
X117485833Y-36626904D01*
X117438214Y-36722142D01*
X117390595Y-36769761D01*
X117295357Y-36817380D01*
X117200119Y-36817380D01*
X117104880Y-36769761D01*
X117057261Y-36722142D01*
X117009642Y-36626904D01*
X116962023Y-36436428D01*
X116962023Y-36198333D01*
X117009642Y-36007857D01*
X117057261Y-35912619D01*
X117104880Y-35865000D01*
X117200119Y-35817380D01*
X117866785Y-36817380D02*
X118390595Y-36150714D01*
X117866785Y-36150714D02*
X118390595Y-36817380D01*
X119295357Y-36817380D02*
X118723928Y-36817380D01*
X119009642Y-36817380D02*
X119009642Y-35817380D01*
X118914404Y-35960238D01*
X118819166Y-36055476D01*
X118723928Y-36103095D01*
X119628690Y-35817380D02*
X120295357Y-35817380D01*
X119866785Y-36817380D01*
X121009642Y-36293571D02*
X120676309Y-36293571D01*
X120676309Y-36817380D02*
X120676309Y-35817380D01*
X121152500Y-35817380D01*
X121866785Y-36293571D02*
X121533452Y-36293571D01*
X121533452Y-36817380D02*
X121533452Y-35817380D01*
X122009642Y-35817380D01*
X105866785Y-37760714D02*
X105866785Y-38427380D01*
X105628690Y-37379761D02*
X105390595Y-38094047D01*
X106009642Y-38094047D01*
X106390595Y-38427380D02*
X106390595Y-37427380D01*
X106962023Y-38427380D02*
X106533452Y-37855952D01*
X106962023Y-37427380D02*
X106390595Y-37998809D01*
X107390595Y-38332142D02*
X107438214Y-38379761D01*
X107390595Y-38427380D01*
X107342976Y-38379761D01*
X107390595Y-38332142D01*
X107390595Y-38427380D01*
X107390595Y-37808333D02*
X107438214Y-37855952D01*
X107390595Y-37903571D01*
X107342976Y-37855952D01*
X107390595Y-37808333D01*
X107390595Y-37903571D01*
X108819166Y-37427380D02*
X108914404Y-37427380D01*
X109009642Y-37475000D01*
X109057261Y-37522619D01*
X109104880Y-37617857D01*
X109152500Y-37808333D01*
X109152500Y-38046428D01*
X109104880Y-38236904D01*
X109057261Y-38332142D01*
X109009642Y-38379761D01*
X108914404Y-38427380D01*
X108819166Y-38427380D01*
X108723928Y-38379761D01*
X108676309Y-38332142D01*
X108628690Y-38236904D01*
X108581071Y-38046428D01*
X108581071Y-37808333D01*
X108628690Y-37617857D01*
X108676309Y-37522619D01*
X108723928Y-37475000D01*
X108819166Y-37427380D01*
X109485833Y-38427380D02*
X110009642Y-37760714D01*
X109485833Y-37760714D02*
X110009642Y-38427380D01*
X110914404Y-38427380D02*
X110342976Y-38427380D01*
X110628690Y-38427380D02*
X110628690Y-37427380D01*
X110533452Y-37570238D01*
X110438214Y-37665476D01*
X110342976Y-37713095D01*
X111485833Y-37855952D02*
X111390595Y-37808333D01*
X111342976Y-37760714D01*
X111295357Y-37665476D01*
X111295357Y-37617857D01*
X111342976Y-37522619D01*
X111390595Y-37475000D01*
X111485833Y-37427380D01*
X111676309Y-37427380D01*
X111771547Y-37475000D01*
X111819166Y-37522619D01*
X111866785Y-37617857D01*
X111866785Y-37665476D01*
X111819166Y-37760714D01*
X111771547Y-37808333D01*
X111676309Y-37855952D01*
X111485833Y-37855952D01*
X111390595Y-37903571D01*
X111342976Y-37951190D01*
X111295357Y-38046428D01*
X111295357Y-38236904D01*
X111342976Y-38332142D01*
X111390595Y-38379761D01*
X111485833Y-38427380D01*
X111676309Y-38427380D01*
X111771547Y-38379761D01*
X111819166Y-38332142D01*
X111866785Y-38236904D01*
X111866785Y-38046428D01*
X111819166Y-37951190D01*
X111771547Y-37903571D01*
X111676309Y-37855952D01*
X112485833Y-37427380D02*
X112581071Y-37427380D01*
X112676309Y-37475000D01*
X112723928Y-37522619D01*
X112771547Y-37617857D01*
X112819166Y-37808333D01*
X112819166Y-38046428D01*
X112771547Y-38236904D01*
X112723928Y-38332142D01*
X112676309Y-38379761D01*
X112581071Y-38427380D01*
X112485833Y-38427380D01*
X112390595Y-38379761D01*
X112342976Y-38332142D01*
X112295357Y-38236904D01*
X112247738Y-38046428D01*
X112247738Y-37808333D01*
X112295357Y-37617857D01*
X112342976Y-37522619D01*
X112390595Y-37475000D01*
X112485833Y-37427380D01*
X113438214Y-37427380D02*
X113533452Y-37427380D01*
X113628690Y-37475000D01*
X113676309Y-37522619D01*
X113723928Y-37617857D01*
X113771547Y-37808333D01*
X113771547Y-38046428D01*
X113723928Y-38236904D01*
X113676309Y-38332142D01*
X113628690Y-38379761D01*
X113533452Y-38427380D01*
X113438214Y-38427380D01*
X113342976Y-38379761D01*
X113295357Y-38332142D01*
X113247738Y-38236904D01*
X113200119Y-38046428D01*
X113200119Y-37808333D01*
X113247738Y-37617857D01*
X113295357Y-37522619D01*
X113342976Y-37475000D01*
X113438214Y-37427380D01*
X114962023Y-38046428D02*
X115723928Y-38046428D01*
X117152500Y-37427380D02*
X117247738Y-37427380D01*
X117342976Y-37475000D01*
X117390595Y-37522619D01*
X117438214Y-37617857D01*
X117485833Y-37808333D01*
X117485833Y-38046428D01*
X117438214Y-38236904D01*
X117390595Y-38332142D01*
X117342976Y-38379761D01*
X117247738Y-38427380D01*
X117152500Y-38427380D01*
X117057261Y-38379761D01*
X117009642Y-38332142D01*
X116962023Y-38236904D01*
X116914404Y-38046428D01*
X116914404Y-37808333D01*
X116962023Y-37617857D01*
X117009642Y-37522619D01*
X117057261Y-37475000D01*
X117152500Y-37427380D01*
X117819166Y-38427380D02*
X118342976Y-37760714D01*
X117819166Y-37760714D02*
X118342976Y-38427380D01*
X119247738Y-38427380D02*
X118676309Y-38427380D01*
X118962023Y-38427380D02*
X118962023Y-37427380D01*
X118866785Y-37570238D01*
X118771547Y-37665476D01*
X118676309Y-37713095D01*
X120009642Y-37903571D02*
X120152500Y-37951190D01*
X120200119Y-37998809D01*
X120247738Y-38094047D01*
X120247738Y-38236904D01*
X120200119Y-38332142D01*
X120152500Y-38379761D01*
X120057261Y-38427380D01*
X119676309Y-38427380D01*
X119676309Y-37427380D01*
X120009642Y-37427380D01*
X120104880Y-37475000D01*
X120152500Y-37522619D01*
X120200119Y-37617857D01*
X120200119Y-37713095D01*
X120152500Y-37808333D01*
X120104880Y-37855952D01*
X120009642Y-37903571D01*
X119676309Y-37903571D01*
X121009642Y-37903571D02*
X120676309Y-37903571D01*
X120676309Y-38427380D02*
X120676309Y-37427380D01*
X121152500Y-37427380D01*
X121866785Y-37903571D02*
X121533452Y-37903571D01*
X121533452Y-38427380D02*
X121533452Y-37427380D01*
X122009642Y-37427380D01*
X106152500Y-39370714D02*
X106152500Y-40037380D01*
X105914404Y-38989761D02*
X105676309Y-39704047D01*
X106295357Y-39704047D01*
X107152500Y-40037380D02*
X106676309Y-40037380D01*
X106676309Y-39037380D01*
X107485833Y-39942142D02*
X107533452Y-39989761D01*
X107485833Y-40037380D01*
X107438214Y-39989761D01*
X107485833Y-39942142D01*
X107485833Y-40037380D01*
X107485833Y-39418333D02*
X107533452Y-39465952D01*
X107485833Y-39513571D01*
X107438214Y-39465952D01*
X107485833Y-39418333D01*
X107485833Y-39513571D01*
X108914404Y-39037380D02*
X109009642Y-39037380D01*
X109104880Y-39085000D01*
X109152500Y-39132619D01*
X109200119Y-39227857D01*
X109247738Y-39418333D01*
X109247738Y-39656428D01*
X109200119Y-39846904D01*
X109152500Y-39942142D01*
X109104880Y-39989761D01*
X109009642Y-40037380D01*
X108914404Y-40037380D01*
X108819166Y-39989761D01*
X108771547Y-39942142D01*
X108723928Y-39846904D01*
X108676309Y-39656428D01*
X108676309Y-39418333D01*
X108723928Y-39227857D01*
X108771547Y-39132619D01*
X108819166Y-39085000D01*
X108914404Y-39037380D01*
X109581071Y-40037380D02*
X110104880Y-39370714D01*
X109581071Y-39370714D02*
X110104880Y-40037380D01*
X111009642Y-40037380D02*
X110438214Y-40037380D01*
X110723928Y-40037380D02*
X110723928Y-39037380D01*
X110628690Y-39180238D01*
X110533452Y-39275476D01*
X110438214Y-39323095D01*
X112009642Y-39942142D02*
X111962023Y-39989761D01*
X111819166Y-40037380D01*
X111723928Y-40037380D01*
X111581071Y-39989761D01*
X111485833Y-39894523D01*
X111438214Y-39799285D01*
X111390595Y-39608809D01*
X111390595Y-39465952D01*
X111438214Y-39275476D01*
X111485833Y-39180238D01*
X111581071Y-39085000D01*
X111723928Y-39037380D01*
X111819166Y-39037380D01*
X111962023Y-39085000D01*
X112009642Y-39132619D01*
X112628690Y-39037380D02*
X112723928Y-39037380D01*
X112819166Y-39085000D01*
X112866785Y-39132619D01*
X112914404Y-39227857D01*
X112962023Y-39418333D01*
X112962023Y-39656428D01*
X112914404Y-39846904D01*
X112866785Y-39942142D01*
X112819166Y-39989761D01*
X112723928Y-40037380D01*
X112628690Y-40037380D01*
X112533452Y-39989761D01*
X112485833Y-39942142D01*
X112438214Y-39846904D01*
X112390595Y-39656428D01*
X112390595Y-39418333D01*
X112438214Y-39227857D01*
X112485833Y-39132619D01*
X112533452Y-39085000D01*
X112628690Y-39037380D01*
X113581071Y-39037380D02*
X113676309Y-39037380D01*
X113771547Y-39085000D01*
X113819166Y-39132619D01*
X113866785Y-39227857D01*
X113914404Y-39418333D01*
X113914404Y-39656428D01*
X113866785Y-39846904D01*
X113819166Y-39942142D01*
X113771547Y-39989761D01*
X113676309Y-40037380D01*
X113581071Y-40037380D01*
X113485833Y-39989761D01*
X113438214Y-39942142D01*
X113390595Y-39846904D01*
X113342976Y-39656428D01*
X113342976Y-39418333D01*
X113390595Y-39227857D01*
X113438214Y-39132619D01*
X113485833Y-39085000D01*
X113581071Y-39037380D01*
X115104880Y-39656428D02*
X115866785Y-39656428D01*
X117295357Y-39037380D02*
X117390595Y-39037380D01*
X117485833Y-39085000D01*
X117533452Y-39132619D01*
X117581071Y-39227857D01*
X117628690Y-39418333D01*
X117628690Y-39656428D01*
X117581071Y-39846904D01*
X117533452Y-39942142D01*
X117485833Y-39989761D01*
X117390595Y-40037380D01*
X117295357Y-40037380D01*
X117200119Y-39989761D01*
X117152500Y-39942142D01*
X117104880Y-39846904D01*
X117057261Y-39656428D01*
X117057261Y-39418333D01*
X117104880Y-39227857D01*
X117152500Y-39132619D01*
X117200119Y-39085000D01*
X117295357Y-39037380D01*
X117962023Y-40037380D02*
X118485833Y-39370714D01*
X117962023Y-39370714D02*
X118485833Y-40037380D01*
X119390595Y-40037380D02*
X118819166Y-40037380D01*
X119104880Y-40037380D02*
X119104880Y-39037380D01*
X119009642Y-39180238D01*
X118914404Y-39275476D01*
X118819166Y-39323095D01*
X120152500Y-39513571D02*
X119819166Y-39513571D01*
X119819166Y-40037380D02*
X119819166Y-39037380D01*
X120295357Y-39037380D01*
X121009642Y-39513571D02*
X120676309Y-39513571D01*
X120676309Y-40037380D02*
X120676309Y-39037380D01*
X121152500Y-39037380D01*
X121866785Y-39513571D02*
X121533452Y-39513571D01*
X121533452Y-40037380D02*
X121533452Y-39037380D01*
X122009642Y-39037380D01*
X157335714Y-33547619D02*
X157383333Y-33500000D01*
X157478571Y-33452380D01*
X157716666Y-33452380D01*
X157811904Y-33500000D01*
X157859523Y-33547619D01*
X157907142Y-33642857D01*
X157907142Y-33738095D01*
X157859523Y-33880952D01*
X157288095Y-34452380D01*
X157907142Y-34452380D01*
X158240476Y-33452380D02*
X158907142Y-33452380D01*
X158478571Y-34452380D01*
X159716666Y-33452380D02*
X159526190Y-33452380D01*
X159430952Y-33500000D01*
X159383333Y-33547619D01*
X159288095Y-33690476D01*
X159240476Y-33880952D01*
X159240476Y-34261904D01*
X159288095Y-34357142D01*
X159335714Y-34404761D01*
X159430952Y-34452380D01*
X159621428Y-34452380D01*
X159716666Y-34404761D01*
X159764285Y-34357142D01*
X159811904Y-34261904D01*
X159811904Y-34023809D01*
X159764285Y-33928571D01*
X159716666Y-33880952D01*
X159621428Y-33833333D01*
X159430952Y-33833333D01*
X159335714Y-33880952D01*
X159288095Y-33928571D01*
X159240476Y-34023809D01*
X160669047Y-33785714D02*
X160669047Y-34452380D01*
X160430952Y-33404761D02*
X160192857Y-34119047D01*
X160811904Y-34119047D01*
D11*
X184721428Y-33471428D02*
X184721428Y-34804761D01*
X184245238Y-32709523D02*
X183769047Y-34138095D01*
X185007142Y-34138095D01*
X186721428Y-34804761D02*
X185769047Y-34804761D01*
X185769047Y-32804761D01*
X27126190Y-33471428D02*
X27126190Y-34804761D01*
X26650000Y-32709523D02*
X26173809Y-34138095D01*
X27411904Y-34138095D01*
X28173809Y-33757142D02*
X28840476Y-33757142D01*
X29126190Y-34804761D02*
X28173809Y-34804761D01*
X28173809Y-32804761D01*
X29126190Y-32804761D01*
D10*
%TO.C,U1*%
X133240952Y-44657380D02*
X133907619Y-44657380D01*
X133479047Y-45657380D01*
X134717142Y-44990714D02*
X134717142Y-45657380D01*
X134479047Y-44609761D02*
X134240952Y-45324047D01*
X134860000Y-45324047D01*
X135717142Y-45657380D02*
X135240952Y-45657380D01*
X135240952Y-44657380D01*
X136002857Y-45609761D02*
X136145714Y-45657380D01*
X136383809Y-45657380D01*
X136479047Y-45609761D01*
X136526666Y-45562142D01*
X136574285Y-45466904D01*
X136574285Y-45371666D01*
X136526666Y-45276428D01*
X136479047Y-45228809D01*
X136383809Y-45181190D01*
X136193333Y-45133571D01*
X136098095Y-45085952D01*
X136050476Y-45038333D01*
X136002857Y-44943095D01*
X136002857Y-44847857D01*
X136050476Y-44752619D01*
X136098095Y-44705000D01*
X136193333Y-44657380D01*
X136431428Y-44657380D01*
X136574285Y-44705000D01*
X137526666Y-45657380D02*
X136955238Y-45657380D01*
X137240952Y-45657380D02*
X137240952Y-44657380D01*
X137145714Y-44800238D01*
X137050476Y-44895476D01*
X136955238Y-44943095D01*
X138383809Y-44990714D02*
X138383809Y-45657380D01*
X138145714Y-44609761D02*
X137907619Y-45324047D01*
X138526666Y-45324047D01*
X139050476Y-45085952D02*
X138955238Y-45038333D01*
X138907619Y-44990714D01*
X138860000Y-44895476D01*
X138860000Y-44847857D01*
X138907619Y-44752619D01*
X138955238Y-44705000D01*
X139050476Y-44657380D01*
X139240952Y-44657380D01*
X139336190Y-44705000D01*
X139383809Y-44752619D01*
X139431428Y-44847857D01*
X139431428Y-44895476D01*
X139383809Y-44990714D01*
X139336190Y-45038333D01*
X139240952Y-45085952D01*
X139050476Y-45085952D01*
X138955238Y-45133571D01*
X138907619Y-45181190D01*
X138860000Y-45276428D01*
X138860000Y-45466904D01*
X138907619Y-45562142D01*
X138955238Y-45609761D01*
X139050476Y-45657380D01*
X139240952Y-45657380D01*
X139336190Y-45609761D01*
X139383809Y-45562142D01*
X139431428Y-45466904D01*
X139431428Y-45276428D01*
X139383809Y-45181190D01*
X139336190Y-45133571D01*
X139240952Y-45085952D01*
D12*
X139010000Y-23765000D02*
X137360000Y-23765000D01*
X133710000Y-23765000D02*
X133710000Y-44205000D01*
X139010000Y-44205000D02*
X139010000Y-23765000D01*
X133710000Y-44205000D02*
X139010000Y-44205000D01*
X135360000Y-23765000D02*
X133710000Y-23765000D01*
X135360000Y-23765000D02*
G75*
G03*
X137360000Y-23765000I1000000J0D01*
G01*
%TO.C,J9*%
X178660000Y-49270000D02*
X191580000Y-49270000D01*
X178660000Y-18670000D02*
X178660000Y-49270000D01*
X191580000Y-18670000D02*
X186120000Y-18670000D01*
X184120000Y-18670000D02*
X178660000Y-18670000D01*
X191580000Y-49270000D02*
X191580000Y-18670000D01*
X184120000Y-18670000D02*
G75*
G03*
X186120000Y-18670000I1000000J0D01*
G01*
%TO.C,J2*%
X150085000Y-16070000D02*
X150085000Y-51870000D01*
X167985000Y-16070000D02*
X150085000Y-16070000D01*
X152575000Y-51810000D02*
X165495000Y-51810000D01*
X158035000Y-16130000D02*
X152575000Y-16130000D01*
X165495000Y-51810000D02*
X165495000Y-16130000D01*
X152575000Y-16130000D02*
X152575000Y-51810000D01*
X165495000Y-16130000D02*
X160035000Y-16130000D01*
X167985000Y-51870000D02*
X167985000Y-16070000D01*
X150085000Y-51870000D02*
X167985000Y-51870000D01*
X158035000Y-16130000D02*
G75*
G03*
X160035000Y-16130000I1000000J0D01*
G01*
%TO.C,J1*%
X21160000Y-49270000D02*
X34080000Y-49270000D01*
X21160000Y-18670000D02*
X21160000Y-49270000D01*
X34080000Y-18670000D02*
X28620000Y-18670000D01*
X26620000Y-18670000D02*
X21160000Y-18670000D01*
X34080000Y-49270000D02*
X34080000Y-18670000D01*
X26620000Y-18670000D02*
G75*
G03*
X28620000Y-18670000I1000000J0D01*
G01*
%TD*%
M02*
