M48
METRIC,TZ
T1C0.800
T2C1.000
%
G90
G05
T1
X20000Y-20000
X20000Y-22540
X20000Y-25080
X20000Y-27620
X20000Y-30160
X20000Y-32700
X20000Y-35240
X20000Y-37780
X20000Y-40320
X20000Y-42860
X20000Y-45400
X20000Y-47940
X35240Y-20000
X35240Y-22540
X35240Y-25080
X35240Y-27620
X35240Y-30160
X35240Y-32700
X35240Y-35240
X35240Y-37780
X35240Y-40320
X35240Y-42860
X35240Y-45400
X35240Y-47940
X132550Y-25095
X132550Y-27635
X132550Y-30175
X132550Y-32715
X132550Y-35255
X132550Y-37795
X132550Y-40335
X132550Y-42875
X140170Y-25095
X140170Y-27635
X140170Y-30175
X140170Y-32715
X140170Y-35255
X140170Y-37795
X140170Y-40335
X140170Y-42875
X151415Y-17460
X151415Y-20000
X151415Y-22540
X151415Y-25080
X151415Y-27620
X151415Y-30160
X151415Y-32700
X151415Y-35240
X151415Y-37780
X151415Y-40320
X151415Y-42860
X151415Y-45400
X151415Y-47940
X151415Y-50480
X166655Y-17460
X166655Y-20000
X166655Y-22540
X166655Y-25080
X166655Y-27620
X166655Y-30160
X166655Y-32700
X166655Y-35240
X166655Y-37780
X166655Y-40320
X166655Y-42860
X166655Y-45400
X166655Y-47940
X166655Y-50480
X177500Y-20000
X177500Y-22540
X177500Y-25080
X177500Y-27620
X177500Y-30160
X177500Y-32700
X177500Y-35240
X177500Y-37780
X177500Y-40320
X177500Y-42860
X177500Y-45400
X177500Y-47940
X192740Y-20000
X192740Y-22540
X192740Y-25080
X192740Y-27620
X192740Y-30160
X192740Y-32700
X192740Y-35240
X192740Y-37780
X192740Y-40320
X192740Y-42860
X192740Y-45400
X192740Y-47940
T2
X57740Y-20000
X57740Y-22540
X57740Y-25080
X57740Y-27620
X57740Y-30160
X57740Y-32700
X57740Y-35240
X57740Y-37780
X57740Y-40320
X57740Y-42860
X57740Y-45400
X57740Y-47940
X80240Y-20000
X80240Y-22540
X80240Y-25080
X80240Y-27620
X80240Y-30160
X80240Y-32700
X80240Y-35240
X80240Y-37780
X80240Y-40320
X80240Y-42860
X80240Y-45400
X80240Y-47940
X102740Y-20000
X102740Y-22540
X102740Y-25080
X102740Y-27620
X102740Y-30160
X102740Y-32700
X102740Y-35240
X102740Y-37780
X102740Y-40320
X102740Y-42860
X102740Y-45400
X102740Y-47940
X125240Y-20000
X125240Y-22540
X125240Y-25080
X125240Y-27620
X125240Y-30160
X125240Y-32700
X125240Y-35240
X125240Y-37780
X125240Y-40320
X125240Y-42860
X125240Y-45400
X125240Y-47940
X147740Y-20000
X147740Y-22540
X147740Y-25080
X147740Y-27620
X147740Y-30160
X147740Y-32700
X147740Y-35240
X147740Y-37780
X147740Y-40320
X147740Y-42860
X147740Y-45400
X147740Y-47940
X170240Y-20000
X170240Y-22540
X170240Y-25080
X170240Y-27620
X170240Y-30160
X170240Y-32700
X170240Y-35240
X170240Y-37780
X170240Y-40320
X170240Y-42860
X170240Y-45400
X170240Y-47940
T0
M30
